<?xml version="1.0" encoding="utf-8"?>
<!-- Generator: Adobe Illustrator 22.0.1, SVG Export Plug-In . SVG Version: 6.00 Build 0)  -->
<svg version="1.1" id="Layer_1" xmlns="http://www.w3.org/2000/svg" xmlns:xlink="http://www.w3.org/1999/xlink" x="0px" y="0px"
	 viewBox="0 0 900 171" xml:space="preserve" preserveAspectRatio="xMinYMid meet">
<style type="text/css">
	.st0{fill:#B0B7BB;}
	.st1{fill:#B4121B;}
	.st2{fill:#FFFFFF;}
	.st3{fill:#231F20;}
	.st4{fill:#6A747C;}
</style>
<g>
	<g>
		<path class="st0" d="M900,66v11.4c0,21.2-10.4,68.2-61.6,93.2c-51.2-25-61.6-72-61.6-93.2V66H900z"/>
	</g>
	<path class="st1" d="M838.4,14.7c0,0,40.2-0.6,61.6,7.9V66H776.8V22.6C798.2,14.1,838.4,14.7,838.4,14.7"/>
	<path class="st2" d="M808.1,28.1c0.5,0.4,1.1,0.7,1.8,0.9c0.6,0.2,1.2,0.2,1.8,0.2c1.2,0,2.3-0.2,3.4-0.4c1.1-0.2,2.2-0.4,3.3-0.4
		c1.1,0,2.2,0.3,3.1,0.9c-0.8-0.8-1.9-1.2-3.1-1.4c-1.1-0.2-2.3-0.1-3.4-0.1c-1.1,0-2.2,0.1-3.2,0c-1-0.1-2-0.5-2.6-1.1l-0.1-0.1
		c-0.4-0.3-0.9-0.2-1.2,0.1C807.6,27.2,807.7,27.7,808.1,28.1L808.1,28.1z M836.1,60.6c-0.4,0.5-0.5,1.1-0.5,1.5c0,0,0,0,0,0
		c0-0.1,0.1-0.1,0.1-0.2c0.1-0.3,0.3-0.5,0.5-0.7c-0.1-0.2-0.1-0.4-0.1-0.6C836.1,60.6,836.1,60.6,836.1,60.6 M837.1,58.6
		c-0.2-0.4-0.5-0.9-0.5-1.6c0-0.1,0-0.2,0-0.3v0c-0.2,0-0.6,0-0.8,0c0,0-0.1,0-0.1,0h-0.1c-0.1,0-0.1,0-0.2,0c-0.1,0-0.2,0-0.2,0.1
		c-0.1,0.1-0.2,0.3-0.3,0.6c-0.1,0.2-0.1,0.5-0.1,0.7c0,0.1,0,0.2,0.1,0.3c0.1,0.1,0.1,0.2,0.3,0.2c0.6,0.2,1,0.3,1.3,0.3h0.1
		c0.1,0,0.2,0,0.3-0.1C837,58.8,837,58.7,837.1,58.6 M837.3,59.4c-0.1,0.1-0.2,0.2-0.3,0.3c0,0-0.1,0.1-0.2,0.2
		c0,0.1-0.1,0.1-0.1,0.2c0,0.1,0,0.2,0,0.3c0,0.2,0,0.3,0.2,0.5c0.1,0.2,0.3,0.4,0.7,0.6c0.3,0.1,0.6,0.2,0.8,0.2
		c0.4,0,0.6-0.2,0.8-0.4c0.1-0.2,0.2-0.4,0.3-0.6c-0.7-0.3-1.4-0.7-1.9-1.3C837.5,59.3,837.4,59.3,837.3,59.4 M833.2,57.6
		c-0.2,0.2-0.3,0.4-0.3,0.6c0,0,0.1-0.1,0.2-0.1c0.4-0.3,0.8-0.5,1.1-0.5c0-0.1,0.1-0.3,0.1-0.4l0-0.1v0c0-0.1,0.1-0.2,0.1-0.3
		C833.8,57,833.5,57.3,833.2,57.6 M858.7,52.6c-0.4-0.1-0.8-0.2-1.3-0.4c-0.8-0.5-1.4-1.5-1.4-2.2c0-0.8,0.5-1.9,1.2-2.6
		c0.5-0.6,1.1-1,1.6-1.3c0,0-2-2-2.1-2.2c-0.6-0.6-1.3-1.1-2.1-1.3c-0.9-0.2-1.7,0-2.5,0.4c-0.5,0.2-1,0.5-1.5,0.8
		c-1.9,1.2-2.9,3.4-3.2,4.2c0.1-0.1,0.2-0.1,0.3-0.2c0.3-0.2,0.7-0.5,0.9-0.5c0.1,0,0.2,0,0.2,0c0.2,0,0.3,0.1,0.3,0.2
		c0.1,0.1,0.1,0.2,0.1,0.3c0,0.2,0,0.3,0,0.3c0,0,0,0.1-0.1,0.3c-0.1,0.2-0.1,0.4-0.2,0.7c-0.1,0.5-0.2,1.1-0.3,1.7
		c0.4-0.6,0.8-1,0.8-1c0,0,0,0,0.1-0.1c0.1,0,0.1-0.1,0.2-0.1c0.1,0,0.1,0,0.2,0.1c0,0,0.1,0.1,0.1,0.2c0,0.1,0,0.1,0,0.2
		c0,0.7-0.2,1.5,0.2,2.2c0.3,0.6,0.5,1.1,0.2,1.7c-0.3,0.5-0.8,1-1.3,1.4c-0.3,0.2-0.6,0.3-1.1,0.4c-0.4,0-1.1,0-1.6,0.2
		c-0.7,0.2-1.3,0.8-2,1c-0.2,0-0.4,0.1-0.7,0.1c-0.8,0-1.8-0.3-2.4-0.9c-0.3-0.3-0.4-0.7-0.4-1c0-0.9,0.8-1.7,0.8-1.8l0-0.1
		c0-0.1,0-0.1,0-0.2l0-0.1c0,0-0.1,0-0.2,0c-0.1,0-0.2,0-0.3,0c-0.7,0-1.9,0-1.9,0c0,0-0.5,0-0.8,0.3l0,0c0,0-0.1,0.1-0.1,0.1
		c-0.1,0.1-0.2,0.3-0.3,0.5c-0.1,0.3,0,0.8-0.1,1.4c-0.1,0.5-0.4,1.2-0.5,1.6c0,0.1,0,0.2,0,0.2c0,0.6,0.3,1.1,0.5,1.4
		c0.7,1,2.1,1.6,3.4,2c1.3,0.4,2.5,0.5,3,0.6c0.1,0,0.2,0,0.2,0c0.2,0,2.1-0.6,2.8-0.7c0.7-0.1,2.3-0.3,3.1-0.4c0,0-1.1-0.5-1.1-0.5
		c0,0-0.1,0-0.1-0.1c-0.1-0.1-0.1-0.2-0.1-0.3c0-0.1,0-0.1,0-0.2c0-0.1,0.1-0.2,0.2-0.2c0.1,0,0.2,0,0.2,0c0.1,0,0.2,0,0.2,0
		c0,0,0.3,0,0.7,0.1c0.4,0,1,0.1,1.5,0.1c0.4,0,0.9,0,1.2-0.1c0.9-0.1,1.4-0.5,1.6-0.7c0,0-0.1,0-0.2,0c-0.2,0-0.4-0.1-0.5-0.1
		c-0.2-0.1-0.4-0.2-0.5-0.3c-0.1,0-0.1-0.1-0.2-0.1c-0.1-0.1-0.1-0.2-0.1-0.3c0,0,0,0,0,0c0-0.1,0.1-0.1,0.1-0.2
		c0.1,0,0.1-0.1,0.2-0.1c0.1,0,0.2-0.1,0.2-0.1c0,0,0.3,0,0.8-0.1c0.4-0.1,1-0.2,1.4-0.3c0.6-0.2,1.3-0.7,1.6-0.9
		c-0.1,0-0.2-0.1-0.4-0.2c-0.3-0.1-0.7-0.3-0.9-0.6c0,0-0.1-0.1-0.1-0.1c-0.1-0.1-0.1-0.2-0.1-0.3l0-0.1c0-0.1,0.1-0.1,0.1-0.1
		c0.1,0,0.1-0.1,0.2-0.1c0.1,0,0.2-0.1,0.2-0.1c0,0,0.1,0,0.2-0.1c0.2,0,0.4-0.1,0.6-0.1c0.5-0.1,1.1-0.3,1.5-0.5
		c0.2-0.1,0.4-0.3,0.4-0.4c0,0,0,0-0.1,0C859,52.6,858.8,52.6,858.7,52.6 M884.3,56.8c-0.1-0.2-0.2-0.3-0.2-0.6
		c0-0.5,0.3-0.8,0.6-1.2c0,0,0.1-0.1,0.1-0.1c0.2-0.4,0.3-0.8,0.3-1.3c0-0.6-0.2-1.4-1-2.2c0,0-0.2-0.2-0.2-0.6
		c0-0.3,0.1-0.8,0.3-1.5c0.2-0.6,0.5-1.1,0.5-1.7c0-0.3-0.1-0.5-0.2-0.8c-0.1,0.5-0.2,1.5-0.9,1.5c-0.5,0-0.4-0.6-0.4-0.9
		c0-0.1,0-0.2,0-0.3c0-0.3,0.1-0.6,0.1-1c0-0.6-0.1-1.3-0.3-1.9c-0.1,0.4-0.2,0.7-0.4,0.9c-0.1,0.1-0.2,0.1-0.3,0.1
		c-0.1,0-0.2-0.1-0.3-0.2c-0.1-0.1-0.1-0.2-0.2-0.3c-0.1-0.2-0.1-0.4-0.1-0.4c0,0-0.1-0.5-0.2-1.1c-0.1-0.5-0.3-1.2-0.4-1.5
		c0,0.2-0.1,0.4-0.1,0.7c-0.1,0.3-0.1,0.7-0.5,0.8c-0.3,0.1-0.3-0.2-0.4-0.4c-0.1-0.3-0.1-0.5-0.2-0.8c-0.1-0.4-0.3-0.9-0.4-1.3
		c-0.1-0.2-0.2-0.4-0.3-0.4c0,0,0,0.1-0.1,0.2c-0.1,0.2-0.2,0.4-0.3,0.6c-0.3,0.5-0.7,1.1-1.3,1.5c-1.1,0.8-2,0.9-2.7,0.9
		c-1.1,0-2.9-0.4-4.5-1.4c-0.9-0.6-2.5-1.5-3.5-2.2l-0.3-0.2l0.3,0c0.3,0,0.7,0,1.1,0c1.6,0,3.2-0.2,4.3-0.7
		c1.4-0.7,2.1-1.5,2.7-2.4c0.6-0.9,1.2-1.7,2.4-2.4c0.7-0.4,1.5-0.5,2.2-0.5c0.8,0,1.5,0.2,1.9,0.3c-0.3-1.1-1.6-2-3.1-2
		c-1.1,0-2.4,0.5-3.5,1.7l-0.2,0.2l0-0.3l0,0c0,0,0-0.1,0-0.1c0-0.1,0-0.3-0.1-0.5c-0.1-0.4-0.3-0.9-0.7-1.5
		c-0.8-1.1-2.3-2.2-5.3-2.2c-0.2,0-0.5,0-0.8,0c-2.5,0.1-7.2,1.6-11.5,2.5c-4.2,0.8-10.4,1.2-13.1,1.2c-1,0-2-0.1-2.9-0.3
		c-0.9-0.2-1.6-0.5-2-1c-0.3-0.3-0.5-0.7-0.5-1.2c0-1,0.5-1.5,1.2-1.8c0.7-0.3,1.5-0.4,2.1-0.4c2.1,0,4.9,1.3,7.1,2.1
		c1.6,0.6,3.2,0.6,4.1,0.6c2.3,0,5.3-1.3,6.8-1.9c1.2-0.5,2.2-0.8,4-0.8c0.4,0,0.9,0,1.4,0.1c-0.6-0.7-2-1.4-3.8-1.4
		c-1.2,0-2.5,0.3-3.9,1.1l-0.1,0.1l-0.1-0.1c-0.1-0.1-0.1-0.3-0.1-0.4c0-0.4,0.2-0.8,0.5-1.2c0.3-0.3,0.7-0.6,1.3-0.9
		c-0.3-0.2-0.9-0.4-1.7-0.6c-0.9-0.2-2-0.3-3.2-0.3c-0.1,0-0.3,0-0.4,0c-2,0.1-3.3,0.6-4.6,1c-1.3,0.5-2.6,1-4.4,1
		c-0.2,0-0.3,0-0.5,0c-0.4,0-0.7,0-1.1,0c-1.8,0-3.4,0.2-4.6,0.8c-1.2,0.6-1.9,1.5-1.9,2.9c0,1.2,0.7,2.2,2,3
		c1.3,0.7,3.2,1.2,5.6,1.2c0,0,0.1,0,0.1,0c5.9,0,13-1.4,17.3-2.2c1.4-0.2,4.4-1.1,7-1.1c1.2,0,2.3,0.2,3.1,0.7
		c0.8,0.5,1.3,1.3,1.3,2.5c0,0.6-0.1,1.4-0.7,2c-0.5,0.6-1.5,1.1-3,1.1c-1.7,0-3.7-0.5-6.1-0.9l-0.2,0c-0.5-0.1-1-0.1-1.6-0.2
		c-3.5-0.4-8-0.7-10.5-0.7c-0.2,0-0.5,0-0.7,0c-1.9,0.1-5.7,0.3-9.2,0.8c-3.6,0.6-7,1.4-8.1,1.6V38l0,3.3l-0.9-1.5
		c0,0.1,0,0.1,0,0.2c0,1.4-0.3,2.6-0.6,3.4c-0.2,0.4-0.3,0.8-0.4,1c0,0.1-0.1,0.1-0.1,0.2l-0.8,1.5l-0.7-1.2
		c-0.2,1.4-0.8,2.7-1.8,3.8c-0.2,0.2-0.7,0.7-1.2,1.1c0,0-0.1,0.1-0.1,0.1c-0.2,0.1-0.3,0.2-0.4,0.3l-1.4,0.9v-2.5
		c-0.3,0.4-0.6,0.7-0.9,1c-0.6,0.5-1.2,0.8-1.9,0.8c-0.2,0-0.4,0-0.6-0.1l-1.2-0.4l0.6-1c0.1-0.1,0.2-0.3,0.3-0.5
		c0.2-0.5,0.3-0.8,0.3-1c0,0,0-0.1,0-0.2c-0.1-0.1-0.3-0.1-0.7-0.1c-0.2,0-0.3,0-0.5,0c-0.7,0.1-2.1,0.5-4.8,1.8
		c-1.4,0.7-2.7,1.5-4,2.3c-0.8,0.5-1.7,1-2.6,1.5c-1.2,0.7-2.6,1.2-4,1.5c-0.4,0.1-0.8,0.1-1.2,0.1c-0.6,0-1.1-0.2-1.5-0.6
		c-0.6,0-1.2-0.2-1.6-0.4c-0.6-0.3-1-0.6-1.4-1c-0.3-0.3-0.5-0.5-0.7-0.7c-0.7,0.6-1.3,1.4-1.4,2.4c0,0.2,0,0.5,0,0.7
		c0,0.1,0,0.3,0,0.4c0.1,0,0.2,0,0.4,0c2.7,0,4.2-0.4,4.3-0.4l0.1,0c0.2,0,0.3,0.1,0.3,0.3l0,0.1c0,0.2-0.1,0.3-0.3,0.3
		c0,0-1.6,0.5-4.5,0.5c-0.1,0-0.2,0-0.3,0c0.1,0.8,0.3,1.5,0.6,2c0.4,0.6,1,0.8,1.3,0.8c0,0,0.1,0,0.1,0c2.2-1.5,3.7-2,3.7-2.1
		c0,0,0.1,0,0.1,0c0.2,0,0.3,0.1,0.3,0.2c0,0,0,0.1,0,0.1c0,0.1-0.1,0.3-0.3,0.3l-0.1,0c-0.1,0-0.2,0.1-0.3,0.1
		c-0.2,0.1-0.6,0.3-1,0.5c-0.3,0.2-0.6,0.3-1,0.6c0,0,0,0,0,0.1c0,0.1,0,0.1,0.1,0.3c0.3,0.5,0.7,1.1,0.9,1.4
		c0.2,0.3,0.5,0.5,0.9,0.5c0.4,0,0.9-0.2,1.4-1c0.3-0.4,0.8-0.8,1.6-0.8l2-0.1l0,0c0,0,0.1,0,0.1,0c0.1,0,0.2,0,0.3-0.1
		c0.3-0.1,0.6-0.3,0.8-0.6c0.1-0.2,0.3-0.3,0.4-0.4c0.2-0.1,0.3-0.1,0.5-0.1c0.3,0,0.7,0.1,1.3,0.3c0.9,0.2,1.5,0.3,1.9,0.3
		c0.1,0,0.3,0,0.3-0.1c-0.1-0.1-0.1-0.1-0.2-0.2c-0.2-0.2-0.4-0.4-0.6-0.6c-0.1-0.1-0.2-0.3-0.2-0.4c0-0.1,0-0.2,0.1-0.2
		c0.1-0.1,0.2-0.2,0.4-0.2c0.1,0,0.2,0.1,0.3,0.1c0.1,0.1,0.1,0.1,0.2,0.2c0.8,0.6,2.4,1,3.7,1c0.4,0,0.7,0,1-0.1
		c-0.2-0.1-0.5-0.3-0.7-0.5c-0.1-0.1-0.2-0.2-0.2-0.4c0-0.1,0-0.2,0.1-0.2c0.1-0.1,0.2-0.1,0.4-0.1c0.4,0,0.9,0.1,0.9,0.1
		c0,0,0.1,0,0.2,0c0.1,0,0.3,0.1,0.6,0.1c0.5,0.1,1.1,0.2,1.7,0.2c0.7,0,1.3-0.1,1.6-0.4c-0.6-0.6-1.1-1-1.1-1c0,0-0.2-0.1-0.2-0.3
		c0-0.1,0-0.2,0.1-0.3c0.1-0.1,0.2-0.1,0.3-0.1c0.3,0,0.5,0.1,0.5,0.2c0,0,0.1,0,0.3,0.1c0.2,0.1,0.4,0.1,0.7,0.2
		c0.6,0.2,1.4,0.3,2.1,0.3c0.6,0,1.2-0.1,1.6-0.4c-0.5-0.2-0.8-0.5-0.8-0.5c0,0-0.1-0.1-0.1-0.3c0-0.1,0-0.1,0.1-0.2
		c0.1-0.1,0.2-0.2,0.3-0.2c0.1,0,0.2,0,0.3,0c0.1,0,0.1,0,0.1,0c0.2,0,0.4,0,0.6,0c1.2,0,1.9-0.3,2.1-0.5l-1.2-1.5
		c0.1-0.1,0.5-0.2,0.5-0.3c0.1-0.1,0.3-0.2,0.6-0.3c0.5-0.1,1.1-0.3,1.9-0.5c1.6-0.5,3.7-1.3,5.9-2.5c4.3-2.4,8.5-5.3,12.7-6.3
		c1-0.2,2.1-0.3,3-0.3c1.1,0,2.2,0.1,3,0.3c0.8,0.2,1.7,0.9,2.6,1.7c0.9,0.9,1.9,2,2.7,2.9c1,1,1.8,1.8,2.2,2.1
		c0.1,0.1,0.2,0.2,0.2,0.2c0,0,0.1,0.1,0.3,0.2c0.2,0.1,0.5,0.3,0.9,0.6c0.7,0.4,1.5,0.8,2.2,1c0-0.2-0.4-1.8,0.3-1.5
		c0.3,0.1,0.5,0.4,0.7,0.6c0.3,0.3,0.6,0.5,0.9,0.7c0.5,0.3,1.1,0.6,1.6,0.6c0.2,0,0.3,0,0.5-0.1c-0.3-0.4-0.6-0.7-0.6-0.7
		c0,0-0.1-0.1-0.1-0.3c0-0.1,0.1-0.2,0.2-0.3c0.1-0.1,0.3-0.1,0.5-0.1c0.1,0,0.2,0,0.3,0c0.2,0,0.5,0,0.9,0c0.7,0,1.7,0,2.5-0.2
		c1.2-0.2,2.2-0.6,2.6-0.7c0.1-0.1,0.2-0.1,0.2-0.1c0,0,0.3-0.1,0.6-0.1c0.2,0,0.4,0,0.5,0.1c0.2,0.2,0.4,0.4,0.5,0.7
		c0.1,0.3,0.2,0.6,0.3,0.7c0.4,0.8,1.1,1.8,1.1,3.4c0,0.2,0,0.5,0,0.7c-0.1,0.4-0.2,1.3-0.6,2c-0.8,1.1-1.6,1.2-1.7,1.2
		c0,0-0.2,0-0.4,0c-0.1,0-0.3,0-0.5,0c-0.6-0.1-1.1-0.3-1.5-0.3c-0.1,0-0.2,0-0.3,0.1c-0.5,0.2-0.6,0.6-0.6,0.9
		c0,0.4,0.2,0.7,0.2,0.8l0,0c0,0,0,0.1,0,0.1c0,0.1,0.1,0.2,0.2,0.3c0.2,0.2,0.5,0.4,1,0.4c0.1,0,0.1,0,0.2,0c0.4,0,0.8-0.3,1-0.5
		c0.3-0.3,0.5-0.5,0.6-0.6l0,0l0.7-1c0,0,0,0,0.1-0.1c0.1,0,0.1-0.1,0.2-0.1c0.1,0,0.1,0,0.2,0c0.1,0.1,0.2,0.2,0.2,0.3
		c0,0.1,0,0.1,0,0.2c0,0.1,0,0.1-0.1,0.1c0,0-0.1,0.1-0.2,0.2c-0.1,0.1-0.2,0.2-0.3,0.4c-0.2,0.3-0.4,0.5-0.5,0.5l0,0
		c0,0,0,0.1,0,0.1c0,0.1,0,0.2,0.2,0.3c0.2,0.2,0.4,0.4,0.6,0.6c0.1,0.2,0.3,0.4,0.5,0.4c0.5,0.1,0.9-0.4,1.2-0.7
		c0.2-0.2,0.5-0.5,0.6-0.8c0.2-0.5,0.2-1,0.2-1.4c0-0.2,0-0.4,0-0.6c0-0.1,0-0.2,0-0.2c0,0,0-0.1,0-0.1c0-0.1,0-0.1,0.1-0.2
		c0.1-0.1,0.1-0.1,0.3-0.2l0.1,0c0.2,0,0.3,0.1,0.3,0.2c0,0.1,0,0.2,0,0.2V57c0,0.3,0,0.7,0,1c0,0.4-0.1,0.7-0.1,0.9
		c0,0,0,0.1,0,0.1c0,0.1,0,0.1,0,0.1c0,0,0.1,0.1,0.1,0.1c0.1,0,0.2,0,0.2,0c0,0,1.7-0.1,1.7-0.1h0c0.1,0,0.3,0,0.5-0.1
		c0.2-0.1,0.4-0.3,0.4-0.8c0-0.1,0-0.2,0-0.3c0-0.4-0.1-0.6-0.2-0.7C884.5,57.1,884.4,57,884.3,56.8 M835,55.6c0,0,0,0.1,0,0.1
		c0,0.1,0,0.1,0.1,0.2c0.1,0.1,0.3,0.1,0.6,0.1c0.2,0,0.3,0,0.5,0c0.2,0,0.4,0,0.5-0.1c0-0.1,0.1-0.2,0.1-0.3
		c0.1-0.2,0.2-0.5,0.2-0.7c0-0.2,0-0.4,0.1-0.6c0-0.1,0-0.3,0-0.4c-0.2-0.2-0.6-0.6-0.8-0.7c-0.1-0.1-0.3-0.2-0.4-0.2
		c-0.1,0-0.3,0-0.5,0.2c-0.2,0.1-0.4,0.3-0.5,0.4c-0.1,0.1-0.2,0.3-0.2,0.4c0,0.1,0,0.2,0.1,0.3c0.2,0.3,0.3,0.6,0.3,0.9
		C835.1,55.4,835,55.5,835,55.6 M834.3,52.8c-0.6,0-1.1,0.3-1.4,0.5c0.1,0,0.1,0,0.2,0c0.1,0,0.2,0,0.3,0c0.3,0,0.6,0.1,0.8,0.1
		c0.2-0.2,0.4-0.4,0.5-0.5C834.6,52.9,834.4,52.8,834.3,52.8 M799.4,58.8c-0.5,0.5-0.7,1-0.7,1.5c0,0.3,0,0.5,0.1,0.7
		c0-0.1,0-0.1,0.1-0.2c0.2-0.7,0.6-1.1,0.9-1.3c-0.1-0.1-0.2-0.3-0.3-0.4C799.5,58.9,799.4,58.8,799.4,58.8 M882.9,60.2L882.9,60.2
		l0-0.2l-0.6,0h0h0c-0.1,0-0.2,0-0.3,0c0.2,0.7,0.6,1.1,1,1.4c0.4,0.3,0.9,0.3,1.2,0.3c0,0,0.1,0,0.1,0c-0.1,0-0.1-0.1-0.2-0.1
		C883.2,61.1,882.9,60.5,882.9,60.2 M877.8,60c-0.1-0.1-0.1-0.1-0.2-0.2c-0.3,0.5-0.4,0.9-0.4,1.3c0,0.7,0.4,1.3,0.7,1.6
		c0-0.1,0-0.1-0.1-0.2c-0.1-0.2-0.1-0.5-0.1-0.7c0-0.6,0.2-1,0.3-1.2v0l0.1-0.2c0,0,0,0-0.1-0.1C878,60.2,877.9,60.1,877.8,60
		 M840.6,52.1c0.2,0,0.3,0,0.4,0c0.1,0,0.2,0,0.3,0h0h0c0.1,0,0.1,0,0.2,0c-0.2-0.7-0.6-1.1-1-1.3c-0.4-0.3-0.9-0.3-1.2-0.3
		c-0.1,0-0.2,0-0.3,0c0.1,0,0.1,0.1,0.2,0.1c0.9,0.4,1.2,1,1.3,1.3v0L840.6,52.1z M872.6,58.3c-0.2,0.4-0.3,0.9-0.3,1.2v0
		c0-0.1,0.1-0.1,0.1-0.2c0.5-0.8,1.1-1.1,1.4-1.1c0-0.1,0-0.2,0-0.4c0-0.2,0-0.3,0.1-0.5c0,0,0,0,0,0
		C873.2,57.6,872.8,58,872.6,58.3 M875.2,54.9c0,0.4,0.3,0.9,0.6,1.2c0.2,0.2,0.5,0.3,0.8,0.3c0.3,0.1,0.6,0.1,0.9,0.1
		c0.3,0,0.9-0.1,0.6-0.5c-0.1-0.2-0.3-0.3-0.4-0.5c-0.1-0.2-0.2-0.5-0.3-0.7c-0.1-0.3-0.2-0.7-0.3-1.1c0-0.1-0.1-0.3-0.1-0.4
		c-0.1-0.1-0.2-0.2-0.3-0.2c-0.1,0-0.2,0-0.4,0.2c-0.6,0.6-0.7,0.7-0.9,1C875.3,54.6,875.2,54.8,875.2,54.9 M875.4,53.4L875.4,53.4
		c0.2-0.1,0.3-0.2,0.5-0.4c0.1-0.1,0.1-0.1,0.2-0.2c-0.4-0.2-0.7-0.2-1-0.2c-0.5,0-1,0.2-1.3,0.5c-0.2,0.1-0.3,0.3-0.4,0.4
		c0.1,0,0.1,0,0.2-0.1c0.3-0.1,0.6-0.2,0.9-0.2C874.9,53.2,875.2,53.3,875.4,53.4L875.4,53.4z M800.2,48.1c-0.4-0.2-0.7-0.3-1-0.3
		c0.1,0,0.1,0.1,0.2,0.1c0.7,0.5,0.9,1.2,0.9,1.5c0,0,0.1,0,0.1,0l0.1,0l0,0l0,0c0,0,0.4,0.3,0.7,0.6
		C801.2,49,800.8,48.4,800.2,48.1 M796.3,51.2c-0.6,0-1,0.2-1.3,0.5c-0.2,0.1-0.3,0.3-0.4,0.4c0.1,0,0.1-0.1,0.2-0.1
		c0.3-0.1,0.6-0.2,0.9-0.2c0.3,0,0.5,0,0.7,0.1c0.1-0.2,0.3-0.5,0.5-0.7C796.7,51.2,796.5,51.2,796.3,51.2 M801.4,51.4L801.4,51.4
		L801.4,51.4c0-0.2,0-0.4-0.3-0.6c-0.2-0.2-0.5-0.4-0.6-0.5c-0.2-0.1-0.3-0.2-0.3-0.2l0,0c0,0-0.1,0-0.1,0c-0.1,0-0.2,0-0.3,0.1
		c0,0-0.1,0-0.2,0.1c-0.1,0-0.2,0.1-0.3,0.2c-0.2,0.1-0.5,0.3-0.8,0.5c0,0.1,0.1,0.1,0.2,0.2c0.4,0.4,0.9,1,1.7,1.3
		c0.3,0.1,0.6,0.3,1,0.3c0-0.1,0-0.3,0-0.4C801.1,51.8,801.3,51.4,801.4,51.4L801.4,51.4z M797,30c0.3,1.2,1.5,3.8,2,5.1
		c0.2,0.4,0.3,0.7,0.3,0.7c0,0,0.3,0.6,0.3,1.3c0,0.3-0.1,0.7-0.3,1c-0.3,0.4-0.5,0.7-0.5,0.7v0l0,0l0,0l0,0c0,0,0,0.1-0.1,0.1
		c-0.1,0.1-0.1,0.3-0.1,0.5c0,0.2,0.1,0.5,0.2,0.8c0,0,0.2,0.4,0.5,0.8c0.3,0.4,0.5,0.9,0.7,1.1c0.1,0.1,0.1,0.2,0.2,0.2
		c0.1,0.1,0.1,0.1,0.1,0.1l0,0c0-0.1,0-0.2,0-0.4c0,0,0-0.1,0-0.1v-0.1c0-0.3,0-0.6,0-0.8c0-0.2,0.2-0.4,0.4-0.4
		c0.1,0,0.3,0.1,0.3,0.3c0.1,0.2,0.1,0.6,0.2,0.9v0c0,0,0,0,0,0.1c0,0.1,0.1,0.2,0.1,0.3c0.1,0.3,0.3,0.6,0.5,1
		c0.4,0.7,1.1,1.5,2.1,1.8c0-0.1,0-0.2,0-0.3c0-0.5,0-0.8,0-0.9c0,0,0-0.1,0-0.1c0-0.1,0-0.1,0-0.2c0-0.1,0.1-0.1,0.2-0.1h0h0h0
		c0.1,0,0.1,0,0.2,0.1c0.1,0,0.1,0.1,0.1,0.1c0.1,0,0.1,0.1,0.1,0.1h0l0,0c0,0,0,0.1,0.1,0.2c0.1,0.1,0.2,0.3,0.4,0.5
		c0.3,0.5,0.8,1.1,1.3,1.7c1,1.1,2.3,2.2,3.4,2.5c-0.1-0.3-0.1-0.6-0.1-1c0-0.6,0.1-1.3,0.4-1.9c-0.1,0.1-0.2,0.2-0.3,0.3l-1.6,1.4
		l0.1-2.1c0.1-2.1,0.8-3.9,2.1-5.3c0.4-0.4,0.8-0.8,1.3-1.1c-0.2,0-0.3-0.1-0.5-0.1c-0.1,0-0.2,0-0.2-0.1l-0.5-0.1
		c-2.8-0.4-6.9-1.6-10.7-5.3c-0.5-0.4-0.9-1.2-0.9-2c0-0.4,0.1-0.9,0.5-1.3c0.3-0.4,0.8-0.8,1.6-1l0,0h0l0,0l0,0l0.1-0.1
		c0.1-0.1,0.1-0.1,0.1-0.2c0-0.1-0.1-0.4-0.6-0.8c-0.6-0.5-1.1-0.8-1.4-1.1c-0.3-0.2-0.4-0.3-0.4-0.3l0,0l0,0l0,0c0,0-0.2,0-0.4,0.2
		c-0.3,0.3-1.5,1.3-1.5,2.6C797,29.7,797,29.8,797,30 M820.4,23.2c0.2,0.1,0.5,0.2,0.6,0.4c0,0,0.1,0.1,0.1,0.1l0.1-0.1
		c0,0,0.3-0.2,0.5-0.5c0.1-0.1,0.6-0.4,0.6-0.6c0-0.3-1.4,0-1.6,0.1c-0.2,0.1-0.3,0.1-0.4,0.2c-0.1,0-0.1,0.1-0.1,0.1l-0.1,0
		C819.9,23.1,820.3,23.1,820.4,23.2 M815.8,25.6L815.8,25.6c0-0.2,0.2-0.5,0.3-0.7c0.2-0.3,0.5-0.5,0.3-0.9
		c-0.1-0.2-0.3-0.3-0.3-0.5c0-0.1,0.1-0.2,0.2-0.3c0.1-0.1,0.3-0.2,0.5-0.2c0.5-0.2,2.2-0.8,2.2-0.8c0.2-0.2,0.2-0.3,0.4-0.5
		c0.2-0.2,0.6-0.4,1.2-0.5c1.7-0.4,6.5-0.7,7-0.7c0.1,0,0.3,0.1,0.5,0.2c0.3,0.2,0.6,0.6,0.9,0.9c0.1,0.1,0.2,0.3,0.3,0.4
		c0.1,0.1,0.1,0.2,0.1,0.2l0.1,0.1l0.1-0.1c0,0,0.1,0,0.2-0.1c0.1,0,0.2-0.1,0.4-0.1c0.2,0,0.4,0,0.6,0.2c0.2,0.1,0.4,0.4,0.5,0.8
		c0.1,0.2,0.1,0.4,0.1,0.6c0,1.2-0.8,2.3-1.3,2.9l-0.1,0.1l0.1,0.1c1.8,2.6,2.1,5,2.1,5.8c-0.2-0.3-0.6-0.8-0.6-0.8
		c0,0-0.1-0.1-0.1-0.2c-0.1-0.1-0.2-0.2-0.3-0.2c0,0-0.1,0-0.1,0c-0.1,0-0.2,0-0.2,0.1c-0.1,0.1-0.1,0.2-0.1,0.3
		c0,0.1,0,0.2,0.1,0.3c0.8,2.3,0.9,4.7,0.9,6c0,0,0,0.1,0,0.1c-0.3-0.5-0.8-1.2-0.8-1.2c-0.1-0.3-0.3-0.4-0.5-0.4
		c-0.1,0-0.2,0-0.2,0.1c-0.1,0.1-0.1,0.2-0.1,0.2c0,0.1,0,0.1,0,0.2c0.4,1.1,0.5,2.1,0.5,3c0,1.2-0.3,2.3-0.5,3
		c-0.1,0.4-0.3,0.7-0.4,0.9c0,0.1-0.1,0.1-0.1,0.2c-0.1-0.1-0.1-0.3-0.2-0.4c-0.2-0.3-0.4-0.7-0.5-1c-0.1-0.1-0.1-0.3-0.2-0.3
		c-0.1-0.1-0.2-0.1-0.3-0.1c-0.1,0-0.2,0.1-0.2,0.1c0,0.1-0.1,0.2-0.1,0.3c0,0,0,0.1,0,0.1c0,0.2,0,0.5,0,0.7c0,2.1-0.8,3.6-1.7,4.5
		c-0.4,0.5-0.8,0.8-1.1,1c-0.1,0.1-0.3,0.2-0.4,0.2c0-0.6,0-2.3,0-3c0-0.1,0-0.2-0.1-0.3c-0.1-0.1-0.1-0.2-0.3-0.2
		c-0.1,0-0.1,0-0.2,0.1c-0.1,0.1-0.1,0.1-0.1,0.2c-0.6,1.4-1.2,2.2-1.7,2.6c-0.5,0.4-1,0.6-1.3,0.6c-0.2,0-0.3,0-0.4-0.1
		c0.1-0.1,0.2-0.3,0.3-0.6c0.2-0.4,0.4-0.9,0.4-1.4c0-0.3-0.1-0.7-0.4-0.9c-0.3-0.2-0.7-0.4-1.3-0.4c-0.2,0-0.4,0-0.6,0
		c-1.4,0.2-3.4,1.1-5.1,1.9c-1.4,0.7-2.6,1.4-2.9,1.6c-0.3-0.7-0.5-1.3-0.5-1.9c0-0.8,0.3-1.5,0.5-2c0.1-0.2,0.3-0.4,0.4-0.5
		c0-0.1,0.1-0.1,0.1-0.1l0,0c0,0,0.1-0.1,0.1-0.1c0.1-0.1,0.1-0.2,0.1-0.3c0-0.1,0-0.2-0.1-0.2c-0.1-0.1-0.2-0.1-0.3-0.1
		c-0.7,0.1-1.3,0.3-1.7,0.6c-0.3,0.2-0.5,0.4-0.7,0.5c0.1-2.3,0.9-3.7,1.8-4.7c0.9-1,1.9-1.4,2.1-1.5c0.2-0.1,0.3-0.1,0.4-0.2
		c0.1-0.1,0.1-0.2,0.1-0.3c0-0.1,0-0.1,0-0.1c0-0.1-0.1-0.1-0.1-0.2c-0.1-0.1-0.3-0.1-0.4-0.1c0,0-0.5-0.1-1-0.2
		c-0.3-0.1-0.5-0.1-0.7-0.2c-0.1,0-0.1,0-0.2,0c1.5-1.9,3.6-2.2,4.8-2.2c0.3,0,0.5,0,0.6,0c0.1,0,0.1,0,0.2,0c0,0,0.1,0,0.1,0
		c0.1,0,0.2,0,0.2,0c0.2,0,0.3,0,0.4-0.1c0.1-0.1,0.2-0.2,0.2-0.3c0-0.1-0.1-0.2-0.1-0.3c-0.1-0.1-0.1-0.1-0.1-0.1c0,0,0,0,0,0
		c-0.1,0-0.3-0.2-0.9-0.5c-0.2-0.1-0.3-0.2-0.4-0.3c-0.1-0.1-0.1-0.1-0.1-0.1l0,0c0.1,0,0.4,0,0.6,0c0.4,0,0.8,0.1,0.9,0.1
		c0.6,0.2,1,0.3,1.5,0.3c0.8,0,1.4-0.3,1.7-0.7c0.4-0.4,0.6-0.8,0.7-1c0.1-0.2,0.2-0.4,0.2-0.6c0-0.3-0.2-0.6-0.5-0.7
		c-0.2,0-0.5-0.1-0.8-0.1c-0.4,0-0.8,0.1-1.1,0.4c-0.2,0.2-0.4,0.3-0.5,0.3c-0.1,0-0.1,0-0.2,0l0,0c0,0-0.7-0.7-0.7-0.7
		c-0.3-0.1-0.5-0.2-0.6-0.2c-0.1-0.1-0.1-0.1-0.1-0.1l0-0.1c0,0,0.1-0.1,0.1-0.1c0.4-0.2,0.6-0.3,0.9-0.3c0.4,0,0.8,0.1,1.7,0.1
		c0.1,0,0.3,0,0.5,0c0.6,0,1-0.2,1.3-0.5c0.2-0.3,0.3-0.6,0.3-0.9c0-0.4-0.1-0.7-0.1-0.7c0,0-0.5-1.2-1.3-2.7
		c-0.2-0.4-0.6-0.6-0.9-0.6c-0.5,0-0.9,0.3-1.3,0.5c-0.3,0.3-0.6,0.5-0.6,0.5c-0.3,0.3-0.6,0.4-0.9,0.4c-0.3,0-0.6-0.1-0.8-0.4
		C816,26.2,815.8,25.9,815.8,25.6 M801.9,28.4c0.4-0.5,0.6-1,0.6-1.4c0-0.4-0.2-0.8-0.4-1.1c-0.1-0.2-0.3-0.3-0.4-0.4
		c0,0.1,0,0.2,0.1,0.3c0,0.2,0.1,0.4,0.1,0.5c0,0.7-0.3,1.1-0.4,1.3C801.6,27.9,801.8,28.1,801.9,28.4 M794.6,27.6
		c0.1,0.3,0.1,0.5,0.2,0.8c0,0.1,0.3,0.8,0.3,0.8c0,0,0.1,0,0.1-0.1l0,0c0.3-0.1,0.5-0.2,0.8-0.2c0.1,0,0.2,0,0.4,0.1
		c0.1-0.2,0.2-0.5,0.3-0.8c0.1-0.3,0.2-0.7,0.2-0.8c0-0.1,0-0.3,0-0.4c0-0.2,0-0.4-0.1-0.6c-0.1-0.1-0.2-0.2-0.5-0.2
		c-0.1,0-0.2,0-0.4,0.1c-0.4,0.1-1,0.3-1.3,0.6C794.6,27,794.6,27.3,794.6,27.6 M796.2,25.4c0.1,0,0.1,0,0.2,0
		c0.3,0,0.5,0.1,0.7,0.2c-0.1-0.8-0.4-1.2-0.7-1.5c-0.4-0.3-0.8-0.4-1.1-0.4c-0.1,0-0.2,0-0.2,0c0.1,0.1,0.2,0.1,0.3,0.2
		C796,24.5,796.2,25,796.2,25.4 M793.4,32c0-0.1,0-0.1,0-0.2c0-0.1-0.6-0.3-0.7-0.4c-0.3-0.1-0.6,0-0.8,0.2
		c-0.2,0.2-0.6,0.8-0.6,1.3c0,0.2,0,0.3,0.2,0.5c0.1,0.1,0.3,0.3,0.6,0.3c0.6,0.2,1.1,0.3,1.5,0.5c-0.2-0.6-0.3-1.2-0.3-1.8
		C793.4,32.3,793.4,32.1,793.4,32 M796.5,37.4c0.8,0.6,1.2,0.9,1.5,0.9c0.2,0,0.3-0.1,0.4-0.2c0.1-0.1,0.2-0.3,0.3-0.4
		c0.1-0.2,0.1-0.4,0.1-0.6c0-0.4-0.1-0.8-0.2-1v0c-0.1-0.2-1.9-4.2-2.3-5.9c-0.1-0.2-0.1-0.5-0.1-0.6l0-0.1c0,0-0.1,0-0.1,0
		c-0.1,0-0.3,0.1-0.5,0.2c-1.1,0.7-1.5,1.6-1.5,2.7C794.1,34.4,795.5,36.6,796.5,37.4 M794.9,56.9c-0.2,0.4-0.2,0.8-0.2,1.1
		c0,0,0,0,0,0.1c0-0.1,0.1-0.1,0.1-0.2c0.3-0.6,0.8-0.9,1.2-1.1c-0.1-0.3-0.1-0.5-0.2-0.8C795.4,56.2,795.1,56.5,794.9,56.9
		 M791.9,29c0,0.1-0.1,0.1-0.1,0.1v0v0l0,0l0,0.1c0,0.1,0,0.1,0,0.2c0,0.2,0.1,0.3,0.3,0.5c0.3,0.2,1,0.6,1.6,1
		c0.2-0.5,0.5-1,0.9-1.4l-0.9-1.6l0,0l0,0l-0.1-0.1c-0.1-0.1-0.2-0.1-0.3-0.1c-0.1,0-0.2,0-0.4,0.2C792.4,28.3,792,28.8,791.9,29
		 M791.4,31.2c-0.3-0.1-0.6-0.1-0.9-0.1c-0.7,0-1.1,0.3-1.3,0.6c-0.2,0.2-0.3,0.5-0.3,0.7c0.1-0.1,0.2-0.1,0.3-0.2
		c0.5-0.3,0.9-0.4,1.2-0.4c0.2,0,0.4,0,0.6,0.1C791.1,31.5,791.4,31.2,791.4,31.2C791.4,31.2,791.4,31.2,791.4,31.2 M790.2,27.4
		c-0.1,0-0.2,0-0.3,0.1c0.1-0.1,0.2-0.3,0.4-0.4c0.3-0.2,0.6-0.4,1.1-0.4c0.4,0,0.8,0.1,1.4,0.5c-0.1,0-0.2,0.1-0.2,0.2
		c-0.2,0.1-0.3,0.3-0.4,0.4c-0.2-0.2-0.6-0.4-1.3-0.4C790.6,27.3,790.4,27.3,790.2,27.4"/>
	<path class="st2" d="M859.7,123.7c-4.3,2.8-19.2,1.1-20.8,8.1v16.3c5.9-7,21.6-6.3,25.9-9.1L859.7,123.7z M817.1,123.7L812,139
		c4.3,2.8,20,2.1,25.9,9.1v-16.3C836.3,124.8,821.3,126.5,817.1,123.7 M820.9,145.5c-2.5,0.1-5.1,0.2-10.1-0.9
		c-0.2,0.9-0.3,1.8-0.4,2.7c4.9,0.5,7.3,0.1,9.7-0.2c2.5-0.4,5.1-0.7,10.3-0.2c2.1,0.2,3.6,0.5,4.8,0.8c-1.1-0.4-2.4-0.8-4.3-1.2
		C825.9,145.3,823.5,145.4,820.9,145.5 M842.8,146.5c1-0.4,2.1-0.8,3.6-1.2c4.9-1.3,7.4-1.2,9.8-1.1c2.3,0.1,4.8,0.2,9.5-1
		c-0.2-1-0.4-2-0.6-2.9c0,0,0,0,0,0c-1.8,1-4.9,1.6-8.4,2.2C852.1,143.3,846.6,144.3,842.8,146.5 M866,144.6c-5,1.1-7.6,1-10.1,0.9
		c-2.6-0.1-5-0.2-10,0.9c-1.8,0.4-3.2,0.8-4.3,1.2c1.2-0.3,2.7-0.6,4.8-0.8c5.3-0.6,7.8-0.2,10.3,0.2c2.4,0.4,4.8,0.7,9.7,0.2
		C866.3,146.3,866.2,145.4,866,144.6 M811,143.2c0.2-1,0.4-2,0.6-2.9l0,0c1.8,1,4.9,1.6,8.4,2.2c4.6,0.8,10.1,1.8,13.9,4.1
		c-1-0.4-2.2-0.8-3.6-1.2c-4.9-1.3-7.4-1.2-9.8-1.1C818.2,144.3,815.8,144.4,811,143.2"/>
	<path class="st2" d="M789.9,82.9l0.7,1.2c0.3,0.5,0.8,0.8,1.4,0.8h0c-0.3,0.6-0.5,1.4-0.6,2.5c0,0.2,0,0.4,0,0.6
		c0,0.5,0,1.3-0.2,1.6c-0.1,0.1-0.2,0.3-0.4,0.5c-0.3,0.4-0.9,1-0.6,1.8l0,0v0c0.3,0.8,1.1,1,1.6,1.1c0.2,0,0.4,0.1,0.6,0.2
		c0.4,0.2,0.8,0.8,1.1,1.2c0.1,0.2,0.2,0.3,0.3,0.5c0.7,0.9,1.5,1.5,2.3,1.8c-0.6,0.3-0.9,1-0.8,1.7l0.3,1.4
		c0.1,0.7,0.8,1.2,1.5,1.2c0.1,0,0.2,0,0.3,0l1.4-0.3c0.6-0.1,1-0.6,1.2-1.1c0.5,0.5,1.3,1,2.2,1.3c0.2,0.1,0.4,0.1,0.6,0.2
		c0.5,0.1,1.2,0.4,1.5,0.7c0.1,0.1,0.2,0.3,0.3,0.5c0.2,0.4,0.7,1.1,1.5,1.2h0l0,0v0c0.9,0,1.3-0.7,1.5-1.2c0.1-0.2,0.2-0.4,0.3-0.5
		c0.3-0.3,1-0.5,1.5-0.7c0.2-0.1,0.4-0.1,0.6-0.2c1.1-0.4,1.9-0.9,2.4-1.6c0,0.3,0.2,0.5,0.3,0.7c0.3,0.3,0.6,0.5,1.1,0.6l1.4,0.1
		c0.1,0,0.1,0,0.2,0c0.8,0,1.5-0.6,1.6-1.4l0.1-1.4c0-0.4-0.1-0.8-0.3-1.2c-0.1-0.1-0.2-0.2-0.3-0.3c0.7-0.3,1.3-0.9,1.9-1.7
		c0.1-0.1,0.2-0.3,0.3-0.5c0.3-0.4,0.7-1,1.1-1.2c0.1-0.1,0.4-0.1,0.6-0.2c0.5-0.1,1.3-0.3,1.6-1.1l0,0l0,0l0,0
		c0.3-0.8-0.3-1.5-0.6-1.8c-0.1-0.2-0.3-0.3-0.4-0.5c-0.2-0.3-0.2-1.1-0.2-1.6c0-0.2,0-0.4,0-0.6c-0.1-1.2-0.3-2.1-0.8-2.8
		c0.1,0,0.1,0,0.2,0c0.6,0,1.2-0.4,1.4-0.9l0.6-1.3c0.2-0.4,0.2-0.8,0-1.2c-0.2-0.4-0.4-0.7-0.8-0.9l-1.3-0.6
		c-0.2-0.1-0.4-0.1-0.6-0.1c-0.4,0-0.7,0.1-1,0.3c-0.1-0.8-0.4-1.5-1-2.4c-0.1-0.2-0.2-0.3-0.3-0.5c-0.3-0.4-0.8-1-0.8-1.4
		c0-0.2,0-0.4,0-0.6c0.1-0.5,0.1-1.3-0.6-1.8l-0.1,0.1h0l0.1-0.1c-0.2-0.2-0.5-0.3-0.9-0.3c-0.4,0-0.7,0.1-1.1,0.3
		c-0.2,0.1-0.4,0.2-0.5,0.2c0,0-0.1,0-0.2,0c-0.4,0-1-0.2-1.4-0.3c-0.2-0.1-0.4-0.1-0.6-0.2c-0.6-0.2-1.2-0.3-1.8-0.3
		c-0.3,0-0.7,0-1.1,0.1c0.1-0.2,0.2-0.5,0.2-0.8c0-0.4-0.2-0.8-0.5-1.1l-1-0.9c-0.3-0.3-0.7-0.4-1.1-0.4c-0.4,0-0.9,0.2-1.2,0.5
		l-0.9,1c-0.4,0.4-0.5,1.1-0.3,1.6c-0.3,0-0.5-0.1-0.7-0.1c-0.5,0-1.1,0.1-1.8,0.3c-0.2,0.1-0.4,0.1-0.6,0.2c-0.5,0.2-1,0.3-1.4,0.3
		c-0.1,0-0.1,0-0.2,0c-0.2,0-0.4-0.1-0.5-0.2c-0.3-0.1-0.7-0.3-1.1-0.3c-0.3,0-0.6,0.1-0.9,0.3l0,0c-0.7,0.5-0.6,1.3-0.6,1.8
		c0,0.2,0,0.4,0,0.6c0,0.4-0.5,1-0.8,1.4c-0.1,0.2-0.2,0.3-0.3,0.5c-0.6,0.9-1,1.9-1,2.7c-0.3-0.3-0.7-0.4-1.1-0.4
		c-0.3,0-0.6,0.1-0.8,0.2l-1.2,0.7c-0.4,0.2-0.6,0.6-0.7,1C789.6,82.1,789.7,82.5,789.9,82.9"/>
	<path class="st2" d="M806,79.8c1.6,0,2.9,1.1,3.2,2.6c0.1,0,0.3,0,0.4,0c1.4,0,2.6,0.9,3.1,2.2c0.5,1.5-0.2,3.1-1.5,3.8
		c0.3,0.6,0.4,1.2,0.3,1.9c-0.1,0.9-0.6,1.6-1.3,2.1c-0.6,0.4-1.2,0.6-1.9,0.6c-0.8,0-1.6-0.3-2.2-0.8c-0.6,0.6-1.4,0.9-2.2,0.9
		c-0.7,0-1.3-0.2-1.9-0.6c-1.3-0.9-1.7-2.6-1-4c-0.6-0.3-1-0.8-1.3-1.4c-0.4-0.8-0.5-1.6-0.2-2.5c0.4-1.3,1.7-2.2,3.1-2.2
		c0.1,0,0.2,0,0.4,0c0.1-0.6,0.4-1.2,0.9-1.7C804.3,80.1,805.1,79.8,806,79.8"/>
	<path class="st1" d="M811.4,94.8c1.3,2.5,0.5,4-1.8,4.8c-0.7,0.2-1.9,0.5-2.5,1.2c-0.5,0.5-0.7,1.2-1,1.2c-0.3,0-0.5-0.7-1-1.2
		c-0.6-0.7-1.9-0.9-2.5-1.2c-2.3-0.8-3.1-2.3-1.8-4.8c0.3-0.5,0.7-1.4,1.3-2.2c0.5,0.3,1.1,0.5,1.7,0.5c0.8,0,1.6-0.3,2.2-0.9
		c0.6,0.5,1.4,0.8,2.2,0.8c0.6,0,1.2-0.2,1.7-0.5C810.6,93.4,811.1,94.3,811.4,94.8 M815.5,97.3l-1.7-0.5c-0.2,0-0.4,0.1-0.4,0.3
		l0.1,1.7c0,0.2,0.1,0.4,0.3,0.4l1.4,0.1c0.2,0,0.4-0.1,0.4-0.3l0.1-1.4C815.9,97.5,815.7,97.4,815.5,97.3 M800.9,88.5
		c-0.6-0.3-1-0.8-1.4-1.4c-0.4-0.7-0.4-1.5-0.2-2.3c-1-0.4-2-0.5-2.6-0.6c-2.8-0.5-4,0.8-4,3.2c0,0.7,0.1,2-0.3,2.8
		c-0.3,0.6-1,1-0.9,1.3v0c0.1,0.3,0.8,0.2,1.5,0.5c0.8,0.4,1.5,1.5,1.9,2c1.5,1.9,3.2,2.2,5.1,0.2c0.4-0.4,1.1-1.1,1.7-2
		C800.6,91.3,800.3,89.8,800.9,88.5 M819.5,87.3c-0.1-2.4-1.2-3.7-4-3.2c-0.6,0.1-1.7,0.3-2.8,0.7c0.3,1.4-0.3,2.9-1.5,3.6
		c0.3,0.6,0.4,1.3,0.3,1.9c-0.1,0.7-0.5,1.4-1,1.8c0.6,0.9,1.3,1.6,1.7,2c2,2,3.7,1.7,5.1-0.2c0.4-0.6,1.1-1.7,1.9-2
		c0.6-0.3,1.4-0.2,1.5-0.5c0.1-0.3-0.5-0.7-0.9-1.3C819.4,89.3,819.5,88.1,819.5,87.3 M798.8,97.2c0-0.2-0.2-0.3-0.4-0.3l-1.6,0.7
		c-0.2,0-0.3,0.2-0.3,0.4l0.3,1.4c0,0.2,0.2,0.3,0.4,0.3l1.4-0.3c0.2,0,0.3-0.2,0.3-0.4L798.8,97.2z M818.3,82.9l1.7,0.4
		c0.2,0.1,0.4,0,0.5-0.2l0.6-1.3c0.1-0.2,0-0.4-0.2-0.5l-1.3-0.6c-0.2-0.1-0.4,0-0.5,0.2l-1,1.4C818.1,82.6,818.2,82.8,818.3,82.9
		 M790.9,82.3l0.7,1.2c0.1,0.2,0.3,0.2,0.5,0.1l1.6-0.6c0.2-0.1,0.2-0.3,0.1-0.5l-1.1-1.3c-0.1-0.2-0.3-0.2-0.5-0.1l-1.2,0.7
		C790.9,81.9,790.8,82.1,790.9,82.3 M797,83.2c0.6,0.3,1.5,0.8,2.6,1c0.5-1.1,1.7-1.8,2.9-1.8c0.1,0,0.2,0,0.4,0
		c0.1-0.6,0.4-1.2,0.9-1.7c0.5-0.6,1.3-0.9,2-0.9c0.1-1.1-0.1-2.2-0.2-2.8c-0.4-2.8-2-3.5-4.3-2.9c-0.7,0.2-1.8,0.7-2.7,0.5
		c-0.7-0.1-1.2-0.6-1.5-0.4c-0.2,0.2,0,0.9,0,1.6c-0.1,0.9-1,1.9-1.4,2.4C794.2,80.2,794.4,81.9,797,83.2 M805.7,73.8
		c0.1,0.1,0.4,0.1,0.5,0l0.9-1.5c0.1-0.1,0.1-0.4,0-0.5l-1-0.9c-0.1-0.1-0.4-0.1-0.5,0l-0.9,1c-0.1,0.1-0.1,0.4,0,0.5L805.7,73.8z
		 M806.4,79.8c1.4,0.2,2.5,1.2,2.8,2.6c0.1,0,0.3,0,0.4,0c1.3,0,2.4,0.7,2.9,1.8c1.1-0.3,2-0.8,2.6-1.1c2.5-1.3,2.7-3,1.4-5
		c-0.4-0.6-1.3-1.5-1.4-2.4c-0.1-0.7,0.2-1.4,0-1.6h0c-0.2-0.2-0.8,0.3-1.5,0.4c-0.9,0.2-2.1-0.3-2.7-0.5c-2.3-0.7-3.9,0-4.3,2.9
		C806.5,77.6,806.3,78.7,806.4,79.8"/>
	<path class="st1" d="M801.8,87.6c0.2,0.1,0.4,0.1,0.5,0.1c0,0,0,0,0,0c0.1,0,0.2,0.1,0.3,0.1c0.1,0.2,0.1,0.4-0.1,0.5
		c-0.1,0.1-0.2,0.2-0.3,0.4c-0.7,0.9-0.5,2.2,0.4,2.8c0.9,0.7,2.2,0.5,2.8-0.4c0.1-0.1,0.2-0.3,0.3-0.5h0c0-0.1,0.1-0.2,0.2-0.2
		c0.2-0.1,0.4,0,0.4,0.2c0.1,0.1,0.1,0.3,0.2,0.4c0.7,0.9,1.9,1.1,2.8,0.4c0.9-0.7,1.1-1.9,0.4-2.8c-0.1-0.1-0.2-0.3-0.4-0.4h0
		c-0.1-0.1-0.1-0.2-0.1-0.3c0-0.2,0.1-0.3,0.3-0.4c0,0,0,0,0,0c0.2,0,0.3,0,0.5-0.1c1.1-0.3,1.6-1.5,1.3-2.5
		c-0.3-1.1-1.5-1.6-2.5-1.3c-0.2,0.1-0.3,0.1-0.5,0.2h0c-0.1,0.1-0.2,0.1-0.3,0c-0.2-0.1-0.3-0.2-0.2-0.4c0-0.2,0.1-0.3,0.1-0.5
		c0-1.1-0.9-2-2-2c-1.1,0-2,0.9-2,2c0,0.2,0,0.4,0.1,0.5c0,0.1,0,0.2-0.1,0.3c-0.1,0.1-0.3,0.2-0.5,0.1v0c-0.1-0.1-0.3-0.2-0.4-0.2
		c-1.1-0.3-2.2,0.2-2.5,1.3C800.2,86.1,800.7,87.2,801.8,87.6"/>
	<path class="st2" d="M804.3,86.8c0-0.9,0.7-1.6,1.6-1.6c0.9,0,1.6,0.7,1.6,1.6c0,0.9-0.7,1.6-1.6,1.6
		C805,88.3,804.3,87.6,804.3,86.8"/>
	<path class="st2" d="M886.9,82.9l-0.7,1.2c-0.3,0.5-0.8,0.8-1.4,0.8h0c0.3,0.6,0.5,1.4,0.6,2.5c0,0.2,0,0.4,0,0.6
		c0,0.5,0,1.3,0.2,1.6c0.1,0.1,0.2,0.3,0.4,0.5c0.3,0.4,0.9,1,0.6,1.8l0,0v0c-0.3,0.8-1.1,1-1.6,1.1c-0.2,0-0.4,0.1-0.6,0.2
		c-0.4,0.2-0.8,0.8-1.1,1.2c-0.1,0.2-0.2,0.3-0.3,0.5c-0.7,0.9-1.5,1.5-2.3,1.8c0.6,0.3,0.9,1,0.8,1.7l-0.3,1.4
		c-0.2,0.7-0.8,1.2-1.5,1.2c-0.1,0-0.2,0-0.3,0l-1.4-0.3c-0.6-0.1-1-0.6-1.2-1.1c-0.5,0.5-1.3,1-2.2,1.3c-0.2,0.1-0.4,0.1-0.6,0.2
		c-0.5,0.1-1.2,0.4-1.5,0.7c-0.1,0.1-0.2,0.3-0.3,0.5c-0.2,0.4-0.7,1.1-1.5,1.2h0l0,0v0c-0.9,0-1.3-0.7-1.5-1.2
		c-0.1-0.2-0.2-0.4-0.3-0.5c-0.3-0.3-1-0.5-1.5-0.7c-0.2-0.1-0.4-0.1-0.6-0.2c-1.1-0.4-1.9-0.9-2.4-1.6c-0.1,0.3-0.2,0.5-0.3,0.7
		c-0.3,0.3-0.6,0.5-1.1,0.6l-1.4,0.1c-0.1,0-0.1,0-0.2,0c-0.8,0-1.5-0.6-1.6-1.4l-0.1-1.4c0-0.4,0.1-0.8,0.3-1.2
		c0.1-0.1,0.2-0.2,0.3-0.3c-0.7-0.3-1.3-0.9-1.9-1.7c-0.1-0.1-0.2-0.3-0.3-0.5c-0.3-0.4-0.7-1-1.1-1.2c-0.1-0.1-0.4-0.1-0.6-0.2
		c-0.5-0.1-1.3-0.3-1.6-1.1l0,0l0,0l0,0c-0.3-0.8,0.3-1.5,0.6-1.8c0.1-0.2,0.3-0.3,0.4-0.5c0.2-0.3,0.2-1.1,0.2-1.6
		c0-0.2,0-0.4,0-0.6c0.1-1.2,0.3-2.1,0.8-2.8c-0.1,0-0.1,0-0.2,0c-0.6,0-1.2-0.4-1.4-0.9l-0.6-1.3c-0.2-0.4-0.2-0.8,0-1.2
		c0.2-0.4,0.4-0.7,0.8-0.9l1.3-0.6c0.2-0.1,0.4-0.1,0.6-0.1c0.4,0,0.7,0.1,1,0.3c0.1-0.8,0.4-1.5,1-2.4c0.1-0.2,0.2-0.3,0.3-0.5
		c0.3-0.4,0.8-1,0.8-1.4c0-0.2,0-0.4,0-0.6c-0.1-0.5-0.1-1.3,0.6-1.8l0.1,0.1h0l-0.1-0.1c0.2-0.2,0.5-0.3,0.9-0.3
		c0.4,0,0.7,0.1,1.1,0.3c0.2,0.1,0.4,0.2,0.5,0.2c0,0,0.1,0,0.2,0c0.4,0,1-0.2,1.4-0.3c0.2-0.1,0.4-0.1,0.6-0.2
		c0.6-0.2,1.2-0.3,1.8-0.3c0.3,0,0.7,0,1.1,0.1c-0.1-0.2-0.2-0.5-0.2-0.8c0-0.4,0.2-0.8,0.5-1.1l1-0.9c0.3-0.3,0.7-0.4,1.1-0.4
		c0.4,0,0.9,0.2,1.2,0.5l0.9,1c0.4,0.4,0.5,1.1,0.3,1.6c0.3,0,0.5-0.1,0.8-0.1c0.5,0,1.1,0.1,1.8,0.3c0.2,0.1,0.4,0.1,0.6,0.2
		c0.5,0.2,1,0.3,1.4,0.3c0.1,0,0.1,0,0.2,0c0.2,0,0.4-0.1,0.5-0.2c0.3-0.1,0.7-0.3,1.1-0.3c0.3,0,0.6,0.1,0.9,0.3l0,0
		c0.7,0.5,0.6,1.3,0.6,1.8c0,0.2,0,0.4,0,0.6c0,0.4,0.5,1,0.8,1.4c0.1,0.2,0.2,0.3,0.3,0.5c0.6,0.9,1,1.9,1,2.7
		c0.3-0.3,0.7-0.4,1.1-0.4c0.3,0,0.6,0.1,0.8,0.2l1.2,0.7c0.4,0.2,0.6,0.6,0.7,1C887.2,82.1,887.1,82.5,886.9,82.9"/>
	<path class="st2" d="M870.8,79.8c-1.6,0-2.9,1.1-3.2,2.6c-0.1,0-0.3,0-0.4,0c-1.4,0-2.6,0.9-3.1,2.2c-0.5,1.5,0.2,3.1,1.5,3.8
		c-0.3,0.6-0.4,1.2-0.3,1.9c0.1,0.9,0.6,1.6,1.3,2.1c0.6,0.4,1.2,0.6,1.9,0.6c0.8,0,1.6-0.3,2.2-0.8c0.6,0.6,1.4,0.9,2.2,0.9
		c0.7,0,1.3-0.2,1.9-0.6c1.3-0.9,1.7-2.6,1-4c0.6-0.3,1-0.8,1.3-1.4c0.4-0.8,0.5-1.6,0.2-2.5c-0.4-1.3-1.7-2.2-3.1-2.2
		c-0.1,0-0.2,0-0.4,0c-0.1-0.6-0.4-1.2-0.9-1.7C872.5,80.1,871.7,79.8,870.8,79.8"/>
	<path class="st1" d="M865.4,94.8c0.3-0.6,0.7-1.4,1.4-2.3c0.5,0.3,1.1,0.5,1.7,0.5c0.8,0,1.6-0.3,2.2-0.8c0.6,0.6,1.4,0.9,2.2,0.9
		c0.6,0,1.2-0.2,1.7-0.5c0.6,0.8,1.1,1.7,1.3,2.2c1.3,2.5,0.5,4-1.8,4.8c-0.7,0.2-1.9,0.5-2.5,1.2c-0.5,0.5-0.6,1.2-1,1.2
		c-0.3,0-0.5-0.7-1-1.2c-0.6-0.7-1.9-0.9-2.5-1.2C864.9,98.8,864.1,97.4,865.4,94.8 M861.2,97.3c-0.2,0-0.3,0.2-0.3,0.4l0.1,1.4
		c0,0.2,0.2,0.3,0.4,0.3l1.4-0.1c0.2,0,0.3-0.2,0.3-0.4l0.1-1.7c0-0.2-0.2-0.3-0.4-0.3L861.2,97.3 M875.9,88.5
		c0.6,1.3,0.3,2.8-0.8,3.7c0.6,0.9,1.3,1.6,1.7,2c2,2,3.7,1.7,5.1-0.2c0.4-0.6,1.1-1.7,1.9-2c0.6-0.3,1.4-0.2,1.5-0.5v0
		c0.1-0.3-0.5-0.7-0.9-1.3c-0.5-0.8-0.3-2.1-0.3-2.8c-0.1-2.4-1.2-3.7-4-3.2c-0.6,0.1-1.6,0.3-2.6,0.6c0.2,0.8,0.1,1.6-0.2,2.3
		C876.9,87.7,876.5,88.2,875.9,88.5 M857.3,87.3c0,0.7,0.1,2-0.3,2.8c-0.3,0.6-1,1-0.9,1.3c0.1,0.3,0.8,0.2,1.5,0.5
		c0.8,0.4,1.5,1.5,1.9,2c1.5,1.9,3.2,2.2,5.1,0.2c0.4-0.4,1.1-1.1,1.7-2c-0.5-0.5-0.9-1.1-1-1.8c-0.1-0.7,0-1.3,0.3-1.9
		c-1.2-0.7-1.9-2.2-1.5-3.6c-1.1-0.4-2.1-0.6-2.8-0.7C858.5,83.7,857.3,84.9,857.3,87.3 M877.9,99c0,0.2,0.1,0.4,0.3,0.4l1.4,0.3
		c0.2,0,0.4-0.1,0.4-0.3l0.3-1.4c0-0.2-0.1-0.4-0.3-0.4l-1.6-0.7c-0.2,0-0.4,0.1-0.4,0.3L877.9,99z M858.4,82.9
		c0.2-0.1,0.3-0.3,0.2-0.5l-1-1.4c-0.1-0.2-0.3-0.3-0.5-0.2l-1.3,0.6c-0.2,0.1-0.3,0.3-0.2,0.5l0.6,1.3c0.1,0.2,0.3,0.3,0.5,0.2
		L858.4,82.9 M885.8,82.3c0.1-0.2,0-0.4-0.1-0.5l-1.2-0.7c-0.2-0.1-0.4,0-0.5,0.1l-1.1,1.3c-0.1,0.2,0,0.4,0.1,0.5l1.6,0.6
		c0.2,0.1,0.4,0,0.5-0.1L885.8,82.3 M879.8,83.2c2.6-1.3,2.7-3,1.4-5c-0.4-0.6-1.3-1.5-1.4-2.4c-0.1-0.7,0.2-1.4,0-1.6
		c-0.2-0.2-0.8,0.3-1.5,0.4c-0.9,0.2-2.1-0.3-2.7-0.5c-2.3-0.7-3.9,0-4.3,2.9c-0.1,0.6-0.3,1.7-0.2,2.8c0.8,0.1,1.5,0.4,2,0.9
		c0.5,0.5,0.8,1.1,0.9,1.7c0.1,0,0.2,0,0.4,0c1.2,0,2.4,0.7,2.9,1.8C878.3,83.9,879.2,83.4,879.8,83.2 M872.1,72.5
		c0.1-0.1,0.2-0.4,0-0.5l-0.9-1c-0.1-0.1-0.4-0.2-0.5,0l-1,0.9c-0.1,0.1-0.2,0.4,0,0.5l0.9,1.5c0.1,0.1,0.4,0.2,0.5,0L872.1,72.5z
		 M870.4,79.8c0.1-1.1-0.1-2.2-0.2-2.9c-0.4-2.8-2-3.5-4.3-2.9c-0.7,0.2-1.8,0.7-2.7,0.5c-0.7-0.1-1.3-0.6-1.5-0.4h0
		c-0.2,0.2,0,0.9,0,1.6c-0.1,0.9-1,1.8-1.4,2.4c-1.3,2-1.2,3.7,1.4,5c0.6,0.3,1.5,0.8,2.6,1.1c0.5-1.1,1.7-1.8,2.9-1.8
		c0.1,0,0.3,0,0.4,0C867.9,81,869,80,870.4,79.8"/>
	<path class="st1" d="M875,87.6c-0.2,0.1-0.4,0.1-0.5,0.1c0,0,0,0,0,0c-0.1,0-0.2,0.1-0.3,0.1c-0.1,0.2-0.1,0.4,0.1,0.5
		c0.1,0.1,0.2,0.2,0.3,0.4c0.7,0.9,0.5,2.2-0.4,2.8c-0.9,0.7-2.2,0.5-2.8-0.4c-0.1-0.1-0.2-0.3-0.3-0.5h0c0-0.1-0.1-0.2-0.2-0.2
		c-0.2-0.1-0.4,0-0.4,0.2c-0.1,0.1-0.1,0.3-0.2,0.4c-0.7,0.9-1.9,1.1-2.8,0.4c-0.9-0.7-1.1-1.9-0.4-2.8c0.1-0.1,0.2-0.3,0.4-0.4h0
		c0.1-0.1,0.1-0.2,0.1-0.3c0-0.2-0.1-0.3-0.3-0.4c0,0,0,0,0,0c-0.2,0-0.3,0-0.5-0.1c-1.1-0.3-1.6-1.5-1.3-2.5
		c0.3-1.1,1.5-1.6,2.5-1.3c0.2,0.1,0.3,0.1,0.5,0.2h0c0.1,0.1,0.2,0.1,0.3,0c0.2-0.1,0.3-0.2,0.2-0.4c0-0.2-0.1-0.3-0.1-0.5
		c0-1.1,0.9-2,2-2c1.1,0,2,0.9,2,2c0,0.2,0,0.4-0.1,0.5c0,0.1,0,0.2,0.1,0.3c0.1,0.1,0.3,0.2,0.5,0.1v0c0.1-0.1,0.3-0.2,0.4-0.2
		c1.1-0.3,2.2,0.2,2.5,1.3C876.6,86.1,876,87.2,875,87.6"/>
	<path class="st2" d="M872.5,86.8c0-0.9-0.7-1.6-1.6-1.6c-0.9,0-1.6,0.7-1.6,1.6c0,0.9,0.7,1.6,1.6,1.6
		C871.8,88.3,872.5,87.6,872.5,86.8"/>
	<path class="st3" d="M480.5,51.4c0,0-7.7,0.3-12.9,2.6c-4,1.7-6.1,4.7-5.9,8.4c0.1,2.2,2.4,5.8,8,5.5c5.5-0.4,10.8-5.1,10.8-5.1
		V51.4z M480.6,48.6l0-7.7c0-5.8-6.2-6-8.9-6c-2.1,0-6.2,0.1-8.2,2.6c-1.1,1.3-0.7,3.7-0.7,4.8c0.1,2.4-1.5,4.1-3.7,4.1
		c-2.2,0-4-1.8-4-4.1c0-4.6,4.3-7.3,4.3-7.3c3.2-2.2,8.7-3.3,13.4-3.3c4.8,0,8.8,1,12.4,3.6c1.8,1.4,3.2,3.7,3.2,8.5v22.6l7.2,2v2.5
		h-10.4l-4.6-5c0,0-6.5,5.5-14.8,5.5c-8.2,0-12-4.4-12-8.5c0,0-1.4-8.4,10.8-12.1c2.3-0.7,4.4-1.1,6.1-1.4
		C477.4,48.5,480.6,48.6,480.6,48.6 M649.8,105c-5.5-1-9.9-2.5-9.9-6.2c0-4.4,5.3-4.8,7.5-4.7c10.1,0.4,12.9,8.9,12.9,8.9h2.3
		l-2.3-11.2h-2l-0.7,2.4c-1.8-1.2-5.5-3.2-10-3.2c-9,0-14.1,5.2-14.1,10.9c0,5.7,7.3,8.1,12.9,9.7c5.4,1.5,12.5,1.8,12.5,7.2
		c0,6.5-8.8,6.3-8.8,6.3c-12,0-15.1-10.7-15.1-10.7h-2.5l2.4,13.1h2.4l0.9-3c0,0,6,3.5,12.2,3.5c9,0,15-5.8,15-12.1
		C665.4,107.6,655.5,106.1,649.8,105 M615.1,51.4c0,0-7.7,0.3-12.9,2.6c-4,1.7-6.1,4.7-5.9,8.4c0.1,2.2,2.4,5.8,8,5.5
		c5.5-0.4,10.8-5.1,10.8-5.1V51.4z M615.2,48.6l0-7.7c0-5.8-6.2-6-8.9-6c-2.2,0-6.2,0.1-8.2,2.6c-1.1,1.3-0.7,3.7-0.7,4.8
		c0.1,2.4-1.5,4.1-3.7,4.1c-2.2,0-4-1.8-4-4.1c0-4.6,4.3-7.3,4.3-7.3c3.2-2.2,8.7-3.3,13.4-3.3c4.8,0,8.8,1,12.4,3.6
		c1.8,1.4,3.2,3.7,3.2,8.5v22.6l7.7,2.1l0.4,2.4h-11.3l-4.6-5c0,0-6.5,5.5-14.8,5.5c-8.2,0-12-4.4-12-8.5c0,0-1.4-8.4,10.8-12.1
		c2.3-0.7,4.4-1.1,6.1-1.4C611.9,48.5,615.2,48.6,615.2,48.6 M673.1,83.8c0,2.5,2,4.5,4.5,4.5c2.5,0,4.5-2,4.5-4.5
		c0-2.5-2-4.5-4.5-4.5C675.1,79.3,673.1,81.3,673.1,83.8 M680.8,91.9l-13.2,1.4v2.9h6.2v27.1l-6.3,2v2.3h19.4v-2.3l-6.1-2V91.9z
		 M515.1,79.3c-2.5,0-4.5,2-4.5,4.5c0,2.5,2,4.5,4.5,4.5c2.5,0,4.5-2,4.5-4.5C519.6,81.3,517.6,79.3,515.1,79.3 M518.1,91.9
		L505,93.3v2.9h6.2v27.1l-6.4,2l0,2.3h19.5v-2.3l-6.1-2V91.9z M628.3,91.5L628.3,91.5c0,0-0.1,0-0.1,0c0,0-0.1,0-0.1,0
		c-7.4-1.6-13.2,4.5-14.5,5.9V92h-2.9l-10.6,2.9V97h6.4v26.8l-6.2,1.7v2.2h20v-2.2l-6.6-1.7v-23.1c0.4-0.5,3.8-4,6.7-4
		c3.3,0,3.4,2.1,6.6,2.4c0,0,0,0,0.1,0h0c0.1,0,0.2,0,0.4,0c2.1,0,3.9-1.7,3.9-3.9C631.3,93.4,630,91.9,628.3,91.5 M762.8,32
		L762.8,32c0,0-0.1,0-0.1,0c0,0-0.1,0-0.1,0c-8.1-1.8-14.4,4.9-15.7,6.5v-5.8h-3.2l-11.6,3.1V38h6.9v29.1l-6.7,1.8v2.3H754v-2.3
		l-7.2-1.9V41.9c0.5-0.5,4.1-4.3,7.2-4.3c3.6,0,3.7,2.3,7.2,2.6c0,0,0,0,0.1,0c0,0,0,0,0,0v0c0.1,0,0.3,0,0.4,0
		c2.3,0,4.2-1.9,4.2-4.2C766,34.1,764.6,32.4,762.8,32 M571.7,103.3h18c-0.3-5.6-3.8-9.3-8.8-9.3C576.8,94,571.7,96.4,571.7,103.3
		 M571.5,106.4c0,0-2.7,18.6,11.9,18.6c0,0,7.6,0.3,11.4-6.7l2.3,1.1c-1.8,5.2-8,8.9-14.7,8.9c-10.1,0-18.6-8.3-18.6-18.5
		c0-6.2,2.5-11.9,7.1-15.3c3-2.2,6.6-3.2,10.6-3.2c8.8,0,15.5,6,16,15.1H571.5z M702.9,44.8h19.5c-0.3-6-4.1-10-9.6-10
		C708.4,34.7,702.9,37.3,702.9,44.8 M694.3,51.8c0-6.7,2.7-12.9,7.7-16.5c3.3-2.4,7.1-3.5,11.4-3.5c9.6,0,16.7,6.5,17.3,16.4h-28.1
		c0,0-2.9,20.1,12.9,20.1c0,0,8.3,0.3,12.3-7.3l2.5,1.2c-2,5.7-8.7,9.6-15.9,9.6C703.5,71.8,694.3,62.9,694.3,51.8 M673.6,58.7
		c0,1.9,0,3.7,0,4.8c0,5.2,5.1,8.2,10.8,8.2c6.7,0,9.7-2.6,11.7-4.7c-0.6-0.7-1.1-1.4-1.5-2.2c-2.2,1.9-4.2,3.6-6.9,3.6
		c-3.3,0-5.6-2.6-6-5.3c-0.2-1.1-0.1-3.3-0.1-5.1l0-23h11.4v-2.6h-11.4V17.6h-3.6c0,0,0.2,6.6-3.1,11.2c-2.5,3.6-7.4,3.7-7.4,3.7
		v2.5h6.3V58.7z M704.3,125.2c-3.1,0-5.1-2.4-5.6-4.9c-0.2-1.1-0.1-3-0.1-4.7l0-21.4h10.6v-2.3h-10.6V78.2h-3.4
		c0,0,0.2,6.1-2.8,10.4c-2.3,3.3-6.9,3.5-6.9,3.5v2.3h5.8v21.9c0,1.7,0,3.4,0,4.5c0,4.8,4.7,7.6,9.9,7.6c6.8,0,9.5-2.9,11.3-4.8
		l-1.8-1.6C708.8,123.6,706.9,125.2,704.3,125.2 M650.4,46.9c-5.9-1.1-10.7-2.7-10.7-6.7c0-4.8,5.7-5.2,8.1-5.1
		c11,0.4,14,9.6,14,9.6h2.5l-2.5-12.1h-2.2l-0.8,2.6c-1.9-1.3-5.9-3.5-10.8-3.5c-9.7,0-15.2,5.6-15.2,11.8c0,6.2,7.9,8.7,13.9,10.5
		c5.8,1.7,13.6,2,13.6,7.7c0,7-9.5,6.9-9.5,6.9c-12.9,0-16.3-11.5-16.3-11.5h-2.7l2.6,14.2h2.6l0.9-3.2c0,0,6.5,3.8,13.3,3.8
		c9.7,0,16.2-6.3,16.2-13.1C667.2,49.7,656.6,48,650.4,46.9 M496.2,123.3v-22.6c0-2.5-0.9-4.8-2.8-6.5c-2.1-1.7-4.7-2.6-7.3-2.9
		c-4.7-0.5-9.3,1.1-13.2,3.6c-1.1,0.7-2.2,1.5-3.3,2.3V92H467l-10.8,2.9V97h6.4v26.4l-6.1,2v2.2h19.4v-2.2l-6.2-2v-22.5v0
		c1.7-1.3,3.5-2.6,5.4-3.6c2.4-1.3,5.5-2.7,8.3-2.3c1.4,0.2,3,1.2,3.9,2.3c1.3,1.7,1.7,4.1,1.7,6.2l0,19.8v0.2l-6.1,1.9v2.2h19.5
		l0-2.3L496.2,123.3z M488.8,123.3v0.1V123.3z M533.4,66.5v0.1V66.5z M504.7,66.6l-6.6,2.1v2.4h21.1v-2.4l-6.7-2.1V42.1l0,0
		c1.9-1.5,3.8-2.8,5.9-3.9c2.6-1.4,6-3,9-2.5c1.5,0.2,3.3,1.3,4.2,2.6c1.4,1.9,1.8,4.4,1.8,6.7l0,21.5c0-0.2,0,0.2,0,0.2l-6.6,2.1
		v2.4H548l0-2.4l-6.6-2.1V42c0-2.8-0.9-5.3-3.1-7.1c-2.2-1.9-5.1-2.8-7.9-3.2c-5.1-0.6-10.1,1.2-14.4,4c-1.2,0.8-2.4,1.6-3.6,2.5
		v-5.8h-2.8l-11.8,3.1v2.3h6.9V66.6z M452.1,54.1l-1.9-0.7l-0.3-0.1c-5.3,9.3-16,14.9-23,14.9c0,0-7.3,0.4-7.3-6.2V20.5l7-2l0.1-1.8
		h-22.2v2.1l6.6,1.7v46.2l-6.7,1.8v2.7h41.3L452.1,54.1z M738.3,94l6.3,1.7l-9.4,25L725,95.4l5.2-1.4v-2.2h-17.4v2.3l4.8,1.3
		l14,34.6c-0.9,1.7-1.8,3.4-2.7,5.1c-1.1,2.1-3.3,5.3-5.9,5.6c-2.4,0.2-3-2.7-4.8-3.7c-3.4-1.8-6.5,2.7-4.2,5.5
		c1.1,1.4,3.1,2.2,4.8,2.4c1.9,0.1,3.9-0.2,5.6-1c0.9-0.4,1.9-1,2.7-1.7c1.6-1.4,2.8-3.2,3.8-5.1c1.7-3.2,3.3-6.3,4.6-9.6
		c1.2-2.8,2.4-5.6,3.6-8.4c1.5-3.4,2.9-6.8,4.3-10.3c1.3-3,2.5-5.9,3.7-8.9c0.6-1.4,1.2-2.9,1.8-4.3c0,0,0-0.1,0-0.1l5.1-1.4v-2.3
		h-15.8V94z M451.5,81.3L451.5,81.3C451.5,81.3,451.5,81.3,451.5,81.3l6.5-1.8V77h-17.8v2.3l7.1,1.9v32.7c0,0,0.5,11-14,11
		c-14.5,0-14.5-9.5-14.5-11V81.2l7.2-2V77h-21.7v2.3l7,1.9v32.2c0,0-1.2,15.2,20.6,15.2c20.7,0,19.4-14.4,19.4-14.4V81.3z
		 M564.3,91.9h-15.5v2l5.8,1.6l-9.2,25.6l-9.5-25.7l5.4-1.4v-2.2h-17.8v2.2l4.7,1.3l13.1,32.4h4.2l13.7-32.2l5.2-1.4V91.9z
		 M548.3,51.8c0-6.4,1.9-12.2,6.4-15.9c3.5-2.8,8.3-4.4,13.1-4.4c4.6,0,8.7,1.4,11.9,3.6c0,0,4.2,2.7,4.2,7.3c0,2.3-1.8,4.1-4,4.1
		c-2.2,0-3.8-1.8-3.7-4.1c0-1.1,0.2-3-0.5-4.4c-1.9-3.8-7.2-3.6-7.2-3.6c-7.7,0-11.1,7.7-11.1,17.3c0,12.7,7,17.3,12.9,17.3
		c0,0,6.7,0.1,12.5-7.4l2.4,1.5c-3.6,5.5-9.8,9.1-16.8,9.1C557.4,72.1,548.3,63,548.3,51.8"/>
	<path class="st2" d="M886.8,118.5c-2.9,0.8-6.5,1.4-11.6,1.4c-4.5,0-7.8-0.5-10.6-1.1c-2.1-0.5-3.8-1.1-5.5-1.8
		c-2.6-1-5.1-2.2-8.3-3.1c-3.2-0.9-7.1-1.5-12.4-1.5c-4.7,0-8.3,0.5-11.3,1.2c-2.3,0.6-4.2,1.3-6,2c-2.7,1.1-5.1,2.2-8,3
		c-3,0.8-6.5,1.4-11.6,1.4c-4.5,0-7.8-0.5-10.6-1.1c-1.9-0.5-3.6-1.1-5.2-1.7c0.6,1.4,1.2,2.7,1.9,4.1c0.5,0.1,0.9,0.3,1.4,0.4
		c3.2,0.9,7.1,1.5,12.4,1.5c4.7,0,8.3-0.5,11.3-1.2c2.3-0.6,4.2-1.3,6-2c2.7-1.1,5.1-2.2,8-3c2.9-0.8,6.5-1.4,11.6-1.4
		c4.5,0,7.8,0.5,10.6,1.1c2.1,0.5,3.8,1.1,5.5,1.8c2.6,1,5.1,2.2,8.3,3.1c3.2,0.9,7.1,1.5,12.4,1.5c4.7,0,8.3-0.5,11.3-1.2
		c0.9-0.2,1.7-0.5,2.5-0.7c0.7-1.4,1.3-2.7,1.9-4.1C889.7,117.6,888.3,118.1,886.8,118.5"/>
	<path class="st2" d="M875.3,113.5c-4.5,0-7.8-0.5-10.6-1.1c-2.1-0.5-3.8-1.1-5.5-1.8c-2.6-1-5.1-2.2-8.3-3.1
		c-3.2-0.9-7.1-1.5-12.4-1.5c-4.7,0-8.3,0.5-11.3,1.2c-2.3,0.6-4.2,1.2-6,2c-2.7,1.1-5.1,2.2-8,3c-2.9,0.8-6.5,1.4-11.6,1.4
		c-4.5,0-7.8-0.5-10.6-1.1c-2.1-0.5-3.8-1.1-5.5-1.8c-0.9-0.4-1.8-0.7-2.7-1.1c0.5,1.3,1,2.7,1.5,4.1c1.5,0.6,3.1,1.2,4.9,1.7
		c3.2,0.9,7.1,1.5,12.4,1.5c4.7,0,8.3-0.5,11.3-1.2c2.3-0.6,4.2-1.2,6-2c2.7-1.1,5.1-2.2,8-3c2.9-0.8,6.5-1.4,11.6-1.4
		c4.5,0,7.8,0.5,10.6,1.1c2.1,0.5,3.8,1.1,5.5,1.8c2.6,1,5.1,2.2,8.3,3.1c3.2,0.9,7.1,1.5,12.4,1.5c4.7,0,8.3-0.5,11.3-1.2
		c2.2-0.6,4.2-1.2,5.9-1.9c0.5-1.4,1.1-2.7,1.5-4.1c-2.4,1-4.6,1.9-7.2,2.7C883.9,112.9,880.3,113.5,875.3,113.5"/>
	<path class="st2" d="M781.7,106.3c2.3,0.9,4.6,1.9,7.5,2.7c3.2,0.9,7.1,1.5,12.4,1.5c4.7,0,8.3-0.5,11.3-1.2c2.3-0.6,4.2-1.2,6-2
		c2.7-1.1,5.1-2.2,8-3c2.9-0.8,6.5-1.4,11.6-1.4c4.5,0,7.8,0.5,10.6,1.1c2.1,0.5,3.8,1.1,5.5,1.8c2.6,1,5.1,2.2,8.3,3.1
		c3.2,0.9,7.1,1.5,12.4,1.5c4.7,0,8.3-0.5,11.3-1.2c2.3-0.6,4.2-1.2,6-2c0.9-0.3,1.7-0.7,2.6-1c0.4-1.3,0.8-2.6,1.2-3.9
		c-0.5,0.2-1,0.4-1.4,0.6c-2.7,1.1-5.1,2.2-8,3c-2.9,0.8-6.5,1.4-11.6,1.4c-4.5,0-7.8-0.5-10.6-1.1c-2.1-0.5-3.8-1.1-5.5-1.8
		c-2.6-1-5.1-2.2-8.3-3.1c-3.2-0.9-7.1-1.5-12.4-1.5c-4.7,0-8.3,0.5-11.3,1.2c-2.3,0.6-4.2,1.2-6,2c-2.7,1.1-5.1,2.2-8,3
		c-3,0.8-6.5,1.4-11.6,1.4c-4.5,0-7.8-0.5-10.6-1.1c-2.1-0.5-3.8-1.1-5.5-1.8c-1.6-0.6-3.2-1.3-5-2
		C780.9,103.7,781.3,105,781.7,106.3"/>
	<rect x="776.8" y="65.2" class="st2" width="123.2" height="1.6"/>
	<rect x="366.8" class="st4" width="1.8" height="144.3"/>
	<path class="st4" d="M16.3,46.8c4.2,0,7.3-0.9,9.3-2.8s3-4.6,3-8.1s-1-6.3-3-8.1c-2-1.9-5.1-2.8-9.3-2.8H3.6v21.9H16.3z M0,21.6
		h15.2c3.2,0,5.9,0.4,8.1,1.1c2.2,0.7,4,1.7,5.3,3c1.3,1.3,2.3,2.8,2.9,4.5c0.6,1.7,0.9,3.6,0.9,5.6c0,2-0.3,3.9-0.9,5.6
		c-0.6,1.7-1.6,3.2-2.9,4.5c-1.3,1.3-3.1,2.3-5.3,3c-2.2,0.7-4.9,1.1-8.1,1.1H3.6v21H0V21.6z"/>
	<path class="st4" d="M38.1,64.5c1.4,1.4,3.1,2.5,4.9,3.3c1.9,0.8,4,1.2,6.6,1.2c1.4,0,2.7-0.1,3.9-0.4c1.2-0.3,2.3-0.7,3.3-1.2
		c0.9-0.5,1.7-1.2,2.2-2c0.5-0.8,0.8-1.7,0.8-2.8c0-1.2-0.2-2.3-0.7-3c-0.5-0.8-1.2-1.5-2.2-2c-1-0.5-2.2-1-3.6-1.3
		c-1.5-0.4-3.1-0.8-5-1.2c-1.6-0.3-3-0.8-4.4-1.2c-1.3-0.5-2.4-1.1-3.4-1.7c-0.9-0.7-1.7-1.6-2.2-2.6c-0.5-1.1-0.8-2.4-0.8-4
		c0-1.5,0.3-2.9,1-4c0.7-1.2,1.6-2.1,2.8-2.9c1.2-0.8,2.5-1.4,4-1.7c1.5-0.4,3.1-0.6,4.7-0.6c2.7,0,5,0.5,7.1,1.5
		c2.1,1,3.7,2.3,5,3.8l-2.3,2.1c-1.2-1.3-2.6-2.3-4.1-3.1c-1.6-0.8-3.4-1.2-5.6-1.2c-1.1,0-2.2,0.1-3.3,0.3c-1.1,0.2-2.1,0.5-3,1
		c-0.9,0.5-1.6,1.1-2.2,1.9c-0.5,0.8-0.8,1.9-0.8,3.2c0,1.1,0.3,2,0.9,2.8c0.6,0.7,1.4,1.4,2.4,1.9c1,0.5,2.1,0.9,3.4,1.2
		c1.3,0.3,2.6,0.6,3.9,0.9c1.4,0.3,2.8,0.7,4.2,1.1c1.4,0.4,2.7,1,3.9,1.7c1.2,0.7,2.1,1.6,2.8,2.7c0.7,1.1,1.1,2.5,1.1,4.2
		c0,1.7-0.4,3.2-1.2,4.5c-0.8,1.2-1.8,2.3-3.1,3.1c-1.3,0.8-2.8,1.4-4.4,1.8c-1.6,0.4-3.3,0.6-4.9,0.6c-3.2,0-6-0.5-8.2-1.4
		c-2.3-0.9-4.2-2.2-5.8-3.8L38.1,64.5z"/>
	<path class="st4" d="M68.4,82.3c0.4,0.4,1.1,0.8,1.8,1.2c0.8,0.3,1.6,0.5,2.6,0.5c1.5,0,2.6-0.5,3.5-1.6c0.8-1,1.6-2.5,2.3-4.5
		l2.8-7.2L66.2,37H70l13.2,29.7L94.5,37h3.6L81.4,79.3c-0.3,0.7-0.7,1.6-1.1,2.4c-0.4,0.9-1,1.7-1.7,2.5c-0.7,0.8-1.5,1.4-2.4,1.9
		c-0.9,0.5-2.1,0.8-3.3,0.8c-1.4,0-2.6-0.2-3.6-0.6c-1-0.4-1.8-1-2.6-1.7L68.4,82.3z"/>
	<path class="st4" d="M131.3,66.1c-1.4,1.7-3.3,3.2-5.6,4.3c-2.3,1.1-4.9,1.7-7.9,1.7c-2.5,0-4.8-0.5-6.9-1.4
		c-2.1-0.9-3.9-2.2-5.5-3.8c-1.5-1.6-2.7-3.5-3.6-5.7c-0.8-2.2-1.3-4.6-1.3-7.1c0-2.5,0.4-4.9,1.3-7.1c0.9-2.2,2.1-4.1,3.6-5.7
		c1.5-1.6,3.4-2.9,5.5-3.8c2.1-0.9,4.4-1.4,6.8-1.4c3,0,5.6,0.5,7.7,1.6c2.1,1.1,3.9,2.5,5.4,4.4l-2.5,1.9c-1.1-1.5-2.6-2.7-4.3-3.5
		c-1.7-0.9-3.8-1.3-6.3-1.3c-2,0-3.8,0.4-5.5,1.2c-1.7,0.8-3.1,1.9-4.3,3.2c-1.2,1.3-2.2,2.9-2.8,4.7c-0.7,1.8-1,3.7-1,5.8
		c0,2,0.3,4,1,5.8c0.7,1.8,1.6,3.4,2.9,4.7c1.2,1.3,2.7,2.4,4.3,3.2c1.7,0.8,3.5,1.2,5.4,1.2c2.5,0,4.7-0.4,6.6-1.3
		c1.9-0.9,3.4-2.1,4.6-3.6L131.3,66.1z"/>
	<path class="st4" d="M136.8,21.6h3.3v22.2c0.4-0.7,1-1.6,1.7-2.5c0.7-0.9,1.6-1.8,2.7-2.5c1.1-0.8,2.4-1.4,3.8-1.9
		c1.4-0.5,3.1-0.8,5-0.8c2.4,0,4.5,0.3,6.1,1c1.7,0.7,3,1.7,4,3c1,1.3,1.8,2.9,2.2,4.8c0.4,1.9,0.7,3.9,0.7,6.2v20.1h-3.3v-19
		c0-2.5-0.2-4.6-0.7-6.3c-0.4-1.7-1.1-3-2-4c-0.9-1-1.9-1.7-3.2-2.1c-1.3-0.4-2.7-0.6-4.4-0.6c-2.2,0-4.1,0.4-5.6,1.3
		c-1.6,0.9-2.9,2-3.9,3.4c-1,1.4-1.8,2.9-2.3,4.6c-0.5,1.7-0.8,3.3-0.8,5v17.6h-3.3V21.6z"/>
	<path class="st4" d="M190,69c2,0,3.8-0.4,5.6-1.2c1.7-0.8,3.2-1.9,4.5-3.2c1.3-1.3,2.3-2.9,3-4.7c0.7-1.8,1.1-3.8,1.1-5.8
		c0-2-0.4-3.9-1.1-5.7c-0.7-1.8-1.7-3.4-3-4.8c-1.3-1.4-2.8-2.5-4.5-3.3c-1.7-0.8-3.6-1.2-5.5-1.2c-2,0-3.9,0.4-5.6,1.2
		c-1.7,0.8-3.2,1.9-4.5,3.2c-1.3,1.3-2.3,2.9-3,4.7c-0.7,1.8-1.1,3.8-1.1,5.8c0,2,0.4,3.9,1.1,5.7c0.7,1.8,1.7,3.4,3,4.8
		c1.3,1.4,2.8,2.5,4.5,3.3C186.3,68.6,188.1,69,190,69 M190,72.1c-2.4,0-4.7-0.5-6.8-1.4c-2.1-0.9-4-2.2-5.6-3.9
		c-1.6-1.6-2.9-3.5-3.8-5.7c-0.9-2.2-1.4-4.5-1.4-7c0-2.5,0.5-4.8,1.4-7c0.9-2.2,2.2-4.1,3.8-5.7c1.6-1.6,3.5-2.9,5.6-3.9
		c2.1-0.9,4.4-1.4,6.8-1.4c2.4,0,4.7,0.5,6.8,1.4c2.1,0.9,4,2.2,5.6,3.9c1.6,1.6,2.9,3.5,3.8,5.7c0.9,2.2,1.4,4.5,1.4,7
		c0,2.5-0.5,4.8-1.4,7c-0.9,2.2-2.2,4.1-3.8,5.7c-1.6,1.6-3.5,2.9-5.6,3.9C194.8,71.6,192.5,72.1,190,72.1"/>
	<rect x="214" y="21.6" class="st4" width="3.3" height="49.6"/>
	<path class="st4" d="M241.3,69c2,0,3.8-0.4,5.6-1.2c1.7-0.8,3.2-1.9,4.5-3.2c1.3-1.3,2.3-2.9,3-4.7c0.7-1.8,1.1-3.8,1.1-5.8
		c0-2-0.4-3.9-1.1-5.7c-0.7-1.8-1.7-3.4-3-4.8c-1.3-1.4-2.8-2.5-4.5-3.3c-1.7-0.8-3.6-1.2-5.5-1.2c-2,0-3.9,0.4-5.6,1.2
		c-1.7,0.8-3.2,1.9-4.5,3.2c-1.3,1.3-2.3,2.9-3,4.7c-0.7,1.8-1.1,3.8-1.1,5.8c0,2,0.4,3.9,1.1,5.7c0.7,1.8,1.7,3.4,3,4.8
		c1.3,1.4,2.8,2.5,4.5,3.3C237.5,68.6,239.3,69,241.3,69 M241.3,72.1c-2.4,0-4.7-0.5-6.8-1.4c-2.1-0.9-4-2.2-5.6-3.9
		c-1.6-1.6-2.9-3.5-3.8-5.7c-0.9-2.2-1.4-4.5-1.4-7c0-2.5,0.5-4.8,1.4-7c0.9-2.2,2.2-4.1,3.8-5.7c1.6-1.6,3.5-2.9,5.6-3.9
		c2.1-0.9,4.4-1.4,6.8-1.4c2.4,0,4.7,0.5,6.8,1.4c2.1,0.9,4,2.2,5.6,3.9c1.6,1.6,2.9,3.5,3.8,5.7c0.9,2.2,1.4,4.5,1.4,7
		c0,2.5-0.5,4.8-1.4,7c-0.9,2.2-2.2,4.1-3.8,5.7c-1.6,1.6-3.5,2.9-5.6,3.9C246,71.6,243.7,72.1,241.3,72.1"/>
	<path class="st4" d="M291.5,40.8c-0.7-0.3-1.6-0.5-2.5-0.7c-0.8-0.2-1.7-0.4-2.9-0.6c-1.1-0.2-2.4-0.3-3.8-0.3c-2.1,0-4,0.3-5.9,1
		c-1.8,0.7-3.5,1.6-4.9,2.9c-1.4,1.3-2.5,2.9-3.3,4.8c-0.8,1.9-1.2,4.1-1.2,6.5c0,1.9,0.2,3.8,0.7,5.5c0.4,1.7,1.2,3.3,2.1,4.6
		c1,1.3,2.2,2.4,3.8,3.2c1.5,0.8,3.4,1.2,5.6,1.2c2.2,0,4-0.4,5.6-1.2c1.5-0.8,2.8-1.8,3.8-3c1-1.2,1.7-2.4,2.2-3.6
		c0.5-1.3,0.7-2.3,0.7-3.2V40.8z M268.2,80.5c0.8,0.6,2,1.3,3.7,2.1c1.7,0.8,3.9,1.2,6.7,1.2c2.5,0,4.5-0.3,6.2-1
		c1.6-0.7,2.9-1.6,3.9-2.8c1-1.2,1.7-2.5,2.1-4.1c0.4-1.6,0.6-3.3,0.6-5.2v-5.2c-0.8,1.3-1.8,2.4-3,3.3c-1,0.8-2.3,1.6-3.9,2.3
		c-1.6,0.7-3.4,1-5.6,1c-2.6,0-4.9-0.5-6.8-1.4c-1.9-0.9-3.5-2.2-4.8-3.8c-1.3-1.6-2.2-3.5-2.8-5.6c-0.6-2.2-0.9-4.5-0.9-6.9
		c0-2.8,0.5-5.3,1.5-7.5c1-2.3,2.3-4.2,4-5.8c1.7-1.6,3.7-2.8,6-3.7c2.3-0.9,4.8-1.3,7.5-1.3c2.5,0,4.8,0.2,7,0.7
		c2.2,0.5,4,1,5.3,1.6v32c0,2.5-0.3,4.8-0.9,6.9c-0.6,2.1-1.6,3.8-2.9,5.2c-1.3,1.4-3,2.5-5.1,3.3c-2.1,0.8-4.5,1.2-7.5,1.2
		c-1.6,0-3.1-0.1-4.5-0.4c-1.3-0.3-2.5-0.6-3.5-1c-1-0.4-1.8-0.9-2.6-1.3c-0.7-0.4-1.3-0.8-1.7-1.2L268.2,80.5z"/>
	<path class="st4" d="M300.9,82.3c0.4,0.4,1,0.8,1.8,1.2c0.8,0.3,1.6,0.5,2.6,0.5c1.5,0,2.6-0.5,3.5-1.6c0.8-1,1.6-2.5,2.3-4.5
		l2.8-7.2L298.7,37h3.8l13.2,29.7L327,37h3.6l-16.8,42.3c-0.3,0.7-0.7,1.6-1.1,2.4c-0.4,0.9-1,1.7-1.7,2.5c-0.7,0.8-1.5,1.4-2.4,1.9
		c-0.9,0.5-2.1,0.8-3.3,0.8c-1.4,0-2.6-0.2-3.6-0.6c-1-0.4-1.8-1-2.6-1.7L300.9,82.3z"/>
</g>
</svg>
